<?xml version="1.0" encoding="UTF-8" standalone="no"?>
<svg
   xmlns:dc="http://purl.org/dc/elements/1.1/"
   xmlns:cc="http://creativecommons.org/ns#"
   xmlns:rdf="http://www.w3.org/1999/02/22-rdf-syntax-ns#"
   xmlns:svg="http://www.w3.org/2000/svg"
   xmlns="http://www.w3.org/2000/svg"
   xmlns:sodipodi="http://sodipodi.sourceforge.net/DTD/sodipodi-0.dtd"
   xmlns:inkscape="http://www.inkscape.org/namespaces/inkscape"
   width="255"
   height="240"
   viewBox="0 0 51 48"
   version="1.1"
   id="svg849"
   sodipodi:docname="full-Five-pointed_star.svg"
   inkscape:version="1.0.2-2 (e86c870879, 2021-01-15)">
  <metadata
     id="metadata855">
    <rdf:RDF>
      <cc:Work
         rdf:about="">
        <dc:format>image/svg+xml</dc:format>
        <dc:type
           rdf:resource="http://purl.org/dc/dcmitype/StillImage" />
        <dc:title>Five Pointed Star</dc:title>
      </cc:Work>
    </rdf:RDF>
  </metadata>
  <defs
     id="defs853" />
  <sodipodi:namedview
     pagecolor="#ffffff"
     bordercolor="#666666"
     borderopacity="1"
     objecttolerance="10"
     gridtolerance="10"
     guidetolerance="10"
     inkscape:pageopacity="0"
     inkscape:pageshadow="2"
     inkscape:window-width="1920"
     inkscape:window-height="1017"
     id="namedview851"
     showgrid="false"
     inkscape:zoom="3.0043662"
     inkscape:cx="127.5"
     inkscape:cy="120"
     inkscape:window-x="-8"
     inkscape:window-y="-8"
     inkscape:window-maximized="1"
     inkscape:current-layer="svg849" />
  <title
     id="title845">Five Pointed Star</title>
  <path
     fill="none"
     stroke="#000000"
     d="m 25.532558,1.7322676 6,17.0000004 h 18 l -14,11 5,17 -15,-10 -15,10 5,-17 -13.9999998,-11 H 19.532558 Z"
     id="path847" />
  <circle
     id="path884"
     style="fill:#000000;stroke:#ffffff;stroke-width:0.2"
     cx="25.629368"
     cy="2.2633727"
     r="0.020108057" />
  <circle
     id="path886"
     style="fill:#000000;stroke:#ffffff;stroke-width:0.2"
     cx="25.562796"
     cy="36.879658"
     r="0.020108057" />
  <path
     style="fill:#000000;stroke:#000000;stroke-width:0.459174;stroke-miterlimit:4;stroke-dasharray:none;stroke-opacity:1"
     d="m 68.962436,187.81796 c 6.373567,-21.64766 11.590708,-39.58405 11.593643,-39.85865 0.003,-0.2746 -14.584417,-11.9576 -32.416337,-25.96222 L 15.718069,96.534152 57.668583,96.367728 99.619098,96.201304 113.54984,56.758709 c 7.6619,-21.693427 13.97596,-39.565175 14.03125,-39.714994 0.0553,-0.14982 6.40753,17.599348 14.1161,39.442594 l 14.0156,39.714995 41.96621,0.166424 41.96622,0.166424 -32.43269,25.462938 c -17.83798,14.00462 -32.43613,25.65856 -32.44034,25.89764 -0.004,0.23908 5.1706,18.03988 11.49958,39.55734 6.32897,21.51746 11.43696,39.19291 11.3511,39.27878 -0.0859,0.0859 -15.69822,-10.2024 -34.6941,-22.86281 -18.99589,-12.66041 -34.72583,-23.09102 -34.95543,-23.17912 -0.22959,-0.0881 -16.15505,10.33575 -35.389902,23.16412 -19.234855,12.82837 -35.025753,23.32431 -35.090885,23.32431 -0.06513,0 5.096316,-17.71173 11.469883,-39.35939 z"
     id="path938"
     transform="scale(0.2)" />
  <path
     style="fill:#000000;stroke:#000000;stroke-width:0.459174;stroke-miterlimit:4;stroke-dasharray:none;stroke-opacity:1"
     d="m 48.705948,238.73681 c 0.103163,-0.26885 6.060436,-20.45733 13.238379,-44.8633 C 74.657318,150.64764 74.978447,149.48555 74.350461,148.9788 73.99589,148.69268 57.405207,135.65222 37.482273,120 L 1.2587587,91.541419 48.652269,91.453507 96.045779,91.365591 111.83261,46.593477 C 126.18097,5.9008864 127.65359,1.90555 127.99435,2.7453343 c 0.20621,0.5081861 7.33143,20.6567557 15.83382,44.7746007 l 15.4589,43.850626 47.3938,0.08543 47.3938,0.08543 -36.84376,28.947049 c -34.46954,27.08169 -36.8304,29.00136 -36.6365,29.78997 0.114,0.46361 5.97083,20.44255 13.01519,44.39764 7.04435,23.95509 12.76318,43.68893 12.7085,43.85297 -0.0547,0.16404 -17.73594,-11.45969 -39.29168,-25.83051 -21.55575,-14.37082 -39.26793,-26.12876 -39.36041,-26.12876 -0.0925,0 -17.93852,11.84756 -39.657886,26.32792 -21.719363,14.48035 -39.405343,26.10795 -39.302176,25.83911 z m 38.85248,-31.08607 c 16.658922,-11.10576 30.288952,-20.32756 30.288952,-20.49287 0,-0.32004 -2.08704,1.03817 -2.27446,1.48019 -0.061,0.14392 -0.32315,0.26166 -0.58249,0.26166 -0.25935,0 -0.47154,0.14978 -0.47154,0.33285 0,0.18307 -0.22467,0.33285 -0.49927,0.33285 -0.2746,0 -0.49927,0.14978 -0.49927,0.33285 0,0.18307 -0.22468,0.33285 -0.49928,0.33285 -0.2746,0 -0.49927,0.14978 -0.49927,0.33285 0,0.18306 -0.22467,0.33285 -0.49927,0.33285 -0.2746,0 -0.49928,0.15862 -0.49928,0.35249 0,0.19387 -0.15084,0.25927 -0.3352,0.14532 -0.18436,-0.11393 -0.42472,0.0261 -0.53415,0.3113 -0.10942,0.28515 -0.33409,0.43494 -0.49927,0.33285 -0.16518,-0.10209 -0.38985,0.0477 -0.49928,0.33285 -0.10942,0.28515 -0.33409,0.43493 -0.49927,0.33285 -0.16517,-0.10209 -0.38985,0.0477 -0.49927,0.33284 -0.10942,0.28516 -0.3341,0.43494 -0.49928,0.33285 -0.16517,-0.10208 -0.38984,0.0477 -0.49927,0.33285 -0.10942,0.28516 -0.33409,0.43494 -0.49927,0.33285 -0.16518,-0.10208 -0.38985,0.0477 -0.49928,0.33285 -0.10942,0.28515 -0.33409,0.43494 -0.49927,0.33285 -0.16518,-0.10209 -0.38985,0.0477 -0.49927,0.33285 -0.10942,0.28515 -0.3341,0.43493 -0.49928,0.33285 -0.16517,-0.10209 -0.38984,0.0477 -0.49927,0.33285 -0.10942,0.28515 -0.33409,0.43493 -0.49927,0.33284 -0.16518,-0.10208 -0.38985,0.0477 -0.49928,0.33285 -0.10942,0.28516 -0.33409,0.43494 -0.49927,0.33285 -0.16518,-0.10208 -0.38985,0.0477 -0.49927,0.33285 -0.10942,0.28516 -0.32383,0.44128 -0.47647,0.34695 -0.15263,-0.0943 -0.43194,0.0937 -0.6207,0.41797 -0.18875,0.32422 -0.34774,0.47592 -0.3533,0.33711 -0.0119,-0.2976 -20.095677,13.03722 -20.25843,13.45081 -0.06103,0.15507 -0.323143,0.28195 -0.582486,0.28195 -0.259346,0 -0.471537,0.14978 -0.471537,0.33285 0,0.18306 -0.224673,0.33284 -0.499273,0.33284 -0.274601,0 -0.499274,0.14979 -0.499274,0.33285 0,0.18307 -0.224673,0.33285 -0.499273,0.33285 -0.2746,0 -0.499273,0.14978 -0.499273,0.33285 0,0.18307 -0.224673,0.33285 -0.499274,0.33285 -0.2746,0 -0.499273,0.14978 -0.499273,0.33285 0,0.18307 -0.224673,0.33285 -0.499273,0.33285 -0.274601,0 -0.499274,0.14978 -0.499274,0.33285 0,0.18306 -0.224673,0.33285 -0.499273,0.33285 -0.2746,0 -0.499273,0.14978 -0.499273,0.33284 0,0.18307 -0.224673,0.33285 -0.499274,0.33285 -0.2746,0 -0.499273,0.14979 -0.499273,0.33285 0,0.18307 -0.224673,0.33285 -0.499273,0.33285 -0.274601,0 -0.499274,0.14978 -0.499274,0.33285 0,0.18307 -0.224673,0.33285 -0.499273,0.33285 -0.274601,0 -0.499274,0.14978 -0.499274,0.33285 0,0.18307 -0.224673,0.33285 -0.499273,0.33285 -0.2746,0 -0.499273,0.14978 -0.499273,0.33285 0,0.18306 -0.224673,0.33284 -0.499274,0.33284 -0.2746,0 -0.499273,0.14979 -0.499273,0.33285 0,0.18307 -0.224673,0.33285 -0.499273,0.33285 -0.274601,0 -0.499274,0.14978 -0.499274,0.33285 0,0.18307 -0.224673,0.33285 -0.499273,0.33285 -0.2746,0 -0.499273,0.14978 -0.499273,0.33285 0,0.18307 -0.224673,0.33285 -0.499274,0.33285 -0.2746,0 -0.499273,0.14978 -0.499273,0.33285 0,0.18306 -0.224673,0.33285 -0.499273,0.33285 -0.274601,0 -0.499274,0.14978 -0.499274,0.33284 0,0.18307 -0.224673,0.33285 -0.499273,0.33285 -0.2746,0 -0.499273,0.14979 -0.499273,0.33285 0,0.18307 -0.224673,0.33285 -0.499274,0.33285 -0.2746,0 -0.499273,0.14978 -0.499273,0.33285 0,0.18307 -0.224673,0.33285 -0.499274,0.33285 -0.2746,0 -0.499273,0.15862 -0.499273,0.35249 0,0.19387 -0.140575,0.26561 -0.312392,0.15942 -0.171816,-0.10618 -0.466824,0.0722 -0.655576,0.39642 -0.188752,0.32422 -0.34774,0.47317 -0.353306,0.33101 -0.0056,-0.14216 -0.788212,0.26552 -1.739215,0.90596 -0.951003,0.64044 -1.772933,1.1206 -1.826515,1.06702 -0.05358,-0.0536 0.564412,-2.40198 1.373325,-5.21866 0.808909,-2.81667 1.403723,-5.22967 1.321809,-5.36221 -0.08191,-0.13254 0.0057,-0.33657 0.194777,-0.4534 0.189038,-0.11683 0.263929,-0.34151 0.166424,-0.49927 -0.0975,-0.15777 -0.0226,-0.38244 0.166425,-0.49928 0.189038,-0.11683 0.253477,-0.35841 0.143198,-0.53685 -0.11028,-0.17844 -0.01951,-0.54254 0.20175,-0.80912 0.221244,-0.26658 0.29069,-0.4847 0.154325,-0.4847 -0.136365,0 -0.06147,-0.22467 0.166424,-0.49927 0.227899,-0.2746 0.30279,-0.49927 0.166425,-0.49927 -0.136365,0 -0.05847,-0.22829 0.173101,-0.50732 0.23157,-0.27902 0.326099,-0.60225 0.210068,-0.71829 -0.116035,-0.11603 -0.04415,-0.41197 0.159747,-0.65765 0.203894,-0.24568 0.259147,-0.44668 0.122782,-0.44668 -0.136365,0 -0.05847,-0.2283 0.173101,-0.50732 0.23157,-0.27903 0.326099,-0.60225 0.210068,-0.71829 -0.116035,-0.11603 -0.04415,-0.41197 0.159747,-0.65765 0.203893,-0.24568 0.259146,-0.44669 0.122781,-0.44669 -0.136364,0 -0.06147,-0.22467 0.166425,-0.49927 0.227898,-0.2746 0.302789,-0.49927 0.166424,-0.49927 -0.136364,0 -0.05847,-0.22829 0.173102,-0.50732 0.231569,-0.27903 0.326099,-0.60225 0.210067,-0.71829 -0.116034,-0.11603 -0.04415,-0.41197 0.159748,-0.65765 0.203893,-0.24568 0.259146,-0.44669 0.122781,-0.44669 -0.136365,0 -0.07456,-0.2089 0.137347,-0.46423 0.211905,-0.25534 0.362289,-0.59234 0.33419,-0.74891 -0.02809,-0.15657 -0.01465,-0.39701 0.02992,-0.53431 0.04456,-0.1373 0.118468,-0.39942 0.164235,-0.58249 0.04577,-0.18306 0.113395,-0.37029 0.150284,-0.41606 0.03689,-0.0458 0.130504,-0.34533 0.208031,-0.6657 l 0.281916,-1.16497 c 0.07753,-0.32037 0.152418,-0.61993 0.166425,-0.6657 0.01401,-0.0458 0.0382,-0.19554 0.05377,-0.33284 0.01558,-0.13731 0.178244,-0.43031 0.361504,-0.65112 0.18326,-0.22082 0.24297,-0.54748 0.13269,-0.72591 -0.110279,-0.17844 -0.04584,-0.42002 0.143199,-0.53686 0.189038,-0.11683 0.263929,-0.3415 0.166424,-0.49927 -0.0975,-0.15777 -0.0226,-0.38244 0.166425,-0.49927 0.189038,-0.11684 0.253477,-0.35842 0.143198,-0.53685 -0.11028,-0.17844 -0.0195,-0.54255 0.20175,-0.80913 0.221244,-0.26658 0.29069,-0.48469 0.154325,-0.48469 -0.136365,0 -0.06147,-0.22467 0.166424,-0.49928 0.227899,-0.2746 0.30279,-0.49927 0.166425,-0.49927 -0.136365,0 -0.06692,-0.21811 0.154325,-0.48469 0.221242,-0.26658 0.312029,-0.63069 0.20175,-0.80913 -0.11028,-0.17843 -0.04584,-0.42001 0.143198,-0.53685 0.189038,-0.11683 0.263929,-0.3415 0.166425,-0.49927 -0.09751,-0.15777 -0.0226,-0.38244 0.166424,-0.49927 0.189038,-0.11684 0.253478,-0.35842 0.143198,-0.53686 -0.110279,-0.17843 -0.0195,-0.54254 0.20175,-0.80912 0.221245,-0.26658 0.29069,-0.48469 0.154325,-0.48469 -0.136364,0 -0.06147,-0.22468 0.166425,-0.49928 0.227898,-0.2746 0.302789,-0.49927 0.166424,-0.49927 -0.136364,0 -0.05847,-0.22829 0.173102,-0.50732 0.231569,-0.27902 0.326099,-0.60225 0.210067,-0.71828 -0.116034,-0.11603 -0.04415,-0.41198 0.159748,-0.65766 0.203896,-0.24567 0.259149,-0.44668 0.122785,-0.44668 -0.136365,0 -0.07456,-0.20891 0.137346,-0.46424 0.211905,-0.25533 0.36229,-0.59234 0.334191,-0.74891 -0.02809,-0.15657 -0.01465,-0.39701 0.02992,-0.53431 0.04456,-0.1373 0.118467,-0.39942 0.164234,-0.58248 0.04577,-0.18307 0.113395,-0.3703 0.150285,-0.41607 0.07126,-0.0884 0.227495,-0.6599 0.477734,-1.74745 0.08424,-0.36614 0.183353,-0.70315 0.220243,-0.74891 0.03689,-0.0458 0.08809,-0.19555 0.113774,-0.33285 0.0257,-0.1373 0.165586,-0.43687 0.310888,-0.6657 0.145302,-0.22883 0.178011,-0.55549 0.07269,-0.72591 -0.105327,-0.17042 -0.03683,-0.40544 0.152208,-0.52227 0.189038,-0.11684 0.263929,-0.34151 0.166424,-0.49928 -0.0975,-0.15776 -0.0226,-0.38244 0.166425,-0.49927 0.189038,-0.11683 0.253478,-0.35841 0.143198,-0.53685 -0.110279,-0.17844 -0.0195,-0.54254 0.20175,-0.80912 0.221245,-0.26659 0.29069,-0.4847 0.154325,-0.4847 -0.136365,0 -0.06147,-0.22467 0.166425,-0.49927 0.227898,-0.2746 0.302789,-0.49927 0.166424,-0.49927 -0.136365,0 -0.05847,-0.2283 0.173102,-0.50732 0.231569,-0.27903 0.326098,-0.60225 0.210067,-0.71829 -0.116034,-0.11603 -0.04415,-0.41197 0.159748,-0.65765 0.203896,-0.24568 0.259149,-0.44669 0.122784,-0.44669 -0.136365,0 -0.07456,-0.2089 0.137347,-0.46423 0.211905,-0.25534 0.362289,-0.59235 0.33419,-0.74891 -0.02809,-0.15657 -0.01465,-0.39701 0.02992,-0.53431 0.04456,-0.1373 0.118468,-0.39942 0.164235,-0.58249 0.04577,-0.18307 0.113395,-0.37029 0.150284,-0.41606 0.03689,-0.0458 0.135999,-0.38278 0.220243,-0.74891 0.139131,-0.60467 0.372262,-1.53877 0.436129,-1.74746 0.01401,-0.0458 -0.01198,-0.13508 -0.05775,-0.19848 -0.04577,-0.0634 0.125361,-0.36658 0.38028,-0.67374 0.254922,-0.30716 0.368557,-0.65341 0.252526,-0.76944 -0.116035,-0.11603 -0.04415,-0.41198 0.159747,-0.65765 0.203897,-0.24568 0.25915,-0.44669 0.122785,-0.44669 -0.136365,0 -0.07254,-0.21134 0.14183,-0.46964 0.214375,-0.2583 0.25859,-0.55072 0.09826,-0.6498 -0.231556,-0.14311 -19.711751,65.19081 -19.711751,66.11053 0,0.13601 0.07502,0.24729 0.166721,0.24729 0.0917,0 13.79675,-9.08653 30.455674,-20.1923 z m 110.838392,19.94547 c 0,-0.91849 -16.15123,-54.93754 -16.38302,-54.79429 -0.16046,0.0992 -0.11636,0.39166 0.098,0.64996 0.21438,0.2583 0.2782,0.46964 0.14183,0.46964 -0.13636,0 -0.0811,0.20101 0.12279,0.44669 0.20389,0.24567 0.27578,0.54162 0.15974,0.65765 -0.11603,0.11604 -0.0215,0.43926 0.21007,0.71829 0.23157,0.27902 0.30947,0.50731 0.1731,0.50731 -0.13636,0 -0.0811,0.20101 0.12278,0.44669 0.2039,0.24568 0.27579,0.54162 0.15975,0.65765 -0.11603,0.11604 -0.0215,0.43926 0.21007,0.71829 0.23157,0.27903 0.30946,0.50732 0.1731,0.50732 -0.13636,0 -0.0615,0.22467 0.16642,0.49927 0.2279,0.2746 0.30279,0.49927 0.16643,0.49927 -0.13637,0 -0.0669,0.21812 0.15432,0.4847 0.22125,0.26658 0.31203,0.63068 0.20175,0.80912 -0.11028,0.17844 -0.0458,0.42002 0.1432,0.53685 0.18904,0.11684 0.26393,0.34151 0.16643,0.49928 -0.0975,0.15776 -0.0226,0.38244 0.16642,0.49927 0.18904,0.11683 0.25348,0.35841 0.1432,0.53685 -0.11028,0.17844 -0.0195,0.54254 0.20175,0.80912 0.22124,0.26659 0.29069,0.4847 0.15432,0.4847 -0.13636,0 -0.0615,0.22467 0.16643,0.49927 0.2279,0.2746 0.30279,0.49927 0.16642,0.49927 -0.13636,0 -0.0669,0.21812 0.15433,0.4847 0.22124,0.26658 0.31203,0.63068 0.20175,0.80912 -0.11028,0.17844 -0.0458,0.42002 0.1432,0.53685 0.18903,0.11684 0.26393,0.34151 0.16642,0.49928 -0.0975,0.15776 -0.0226,0.38244 0.16643,0.49927 0.18903,0.11683 0.25347,0.35842 0.14319,0.53685 -0.11028,0.17844 -0.0195,0.54255 0.20175,0.80912 0.22125,0.26659 0.29069,0.4847 0.15433,0.4847 -0.13637,0 -0.0811,0.20101 0.12278,0.44669 0.20389,0.24567 0.27578,0.54162 0.15975,0.65765 -0.11603,0.11603 -0.0215,0.43926 0.21007,0.71828 0.23156,0.27903 0.30946,0.50732 0.1731,0.50732 -0.13637,0 -0.0615,0.22467 0.16642,0.49927 0.2279,0.27461 0.30279,0.49928 0.16643,0.49928 -0.13637,0 -0.0669,0.21811 0.15432,0.48469 0.22124,0.26658 0.31203,0.63069 0.20175,0.80913 -0.11028,0.17843 -0.0458,0.42001 0.1432,0.53685 0.18904,0.11683 0.26393,0.3415 0.16642,0.49927 -0.0975,0.15777 -0.0226,0.38244 0.16643,0.49927 0.18904,0.11684 0.25348,0.35842 0.1432,0.53686 -0.11028,0.17843 -0.0195,0.54254 0.20175,0.80912 0.22124,0.26658 0.29069,0.48469 0.15432,0.48469 -0.13636,0 -0.0811,0.20101 0.12278,0.44669 0.2039,0.24568 0.27578,0.54162 0.15975,0.65765 -0.11603,0.11604 -0.0215,0.43926 0.21007,0.71829 0.23157,0.27902 0.30946,0.50732 0.1731,0.50732 -0.13637,0 -0.0615,0.22467 0.16642,0.49927 0.2279,0.2746 0.30279,0.49927 0.16643,0.49927 -0.13637,0 -0.0669,0.21811 0.15432,0.4847 0.22124,0.26658 0.31203,0.63068 0.20175,0.80912 -0.11028,0.17844 -0.0458,0.42002 0.1432,0.53685 0.18904,0.11683 0.26393,0.34151 0.16643,0.49927 -0.0975,0.15777 -0.0226,0.38244 0.16642,0.49928 0.18904,0.11683 0.25754,0.35185 0.15221,0.52227 -0.10532,0.17042 -0.0726,0.49708 0.0727,0.72591 0.1453,0.22883 0.2852,0.5284 0.31088,0.6657 0.0257,0.1373 0.0769,0.28708 0.11378,0.33285 0.0369,0.0458 0.1305,0.34533 0.20803,0.6657 l 0.28192,1.16497 c 0.0775,0.32036 0.17114,0.61993 0.20803,0.66569 0.0369,0.0458 0.10451,0.233 0.15028,0.41607 0.0458,0.18306 0.11967,0.44518 0.16423,0.58248 0.0446,0.1373 0.058,0.37774 0.0299,0.53431 -0.0281,0.15657 0.12228,0.49358 0.33419,0.74891 0.21191,0.25533 0.27371,0.46424 0.13735,0.46424 -0.13637,0 -0.0811,0.20101 0.12278,0.44668 0.20389,0.24568 0.28213,0.53528 0.17385,0.64356 -0.10828,0.10827 -0.0718,0.39406 0.081,0.63507 0.15283,0.24101 0.29889,0.55054 0.32458,0.68784 0.0257,0.1373 0.0769,0.28708 0.11377,0.33285 0.0713,0.0884 0.2275,0.6599 0.47774,1.74746 0.0842,0.36613 0.17609,0.6657 0.2041,0.6657 0.028,0 0.11436,0.26211 0.19189,0.58248 l 0.28192,1.16497 c 0.0775,0.32037 0.16387,0.58249 0.19189,0.58249 0.028,0 0.11436,0.26212 0.19189,0.58248 l 0.28191,1.16497 c 0.0775,0.32037 0.15242,0.61994 0.16643,0.6657 0.014,0.0458 0.0382,0.19555 0.0538,0.33285 0.0156,0.1373 0.17824,0.43031 0.3615,0.65112 0.18326,0.22081 0.24297,0.54747 0.13269,0.72591 -0.11028,0.17844 -0.0458,0.42002 0.1432,0.53685 0.18904,0.11684 0.2653,0.33929 0.16947,0.49434 -0.0958,0.15506 -0.0271,0.66895 0.15276,1.14197 0.39247,1.03228 0.23514,1.06526 -0.97412,0.2042 -0.50659,-0.36073 -1.0165,-0.56044 -1.13314,-0.4438 -0.11663,0.11663 -0.21206,0.0373 -0.21206,-0.17626 0,-0.21358 -0.22467,-0.38832 -0.49928,-0.38832 -0.2746,0 -0.49927,-0.14979 -0.49927,-0.33285 0,-0.18307 -0.22467,-0.33285 -0.49927,-0.33285 -0.2746,0 -0.49928,-0.14978 -0.49928,-0.33285 0,-0.18307 -0.21219,-0.33285 -0.47153,-0.33285 -0.25934,0 -0.52146,-0.12273 -0.58249,-0.27272 -0.17,-0.41789 -4.27015,-3.11692 -4.28168,-2.81853 -0.006,0.14412 -0.16455,-0.003 -0.35331,-0.32745 -0.18875,-0.32422 -0.46806,-0.51231 -0.6207,-0.41798 -0.15263,0.0943 -0.36704,-0.0618 -0.47646,-0.34694 -0.10942,-0.28515 -0.3341,-0.43494 -0.49927,-0.33285 -0.16518,0.10209 -0.38985,-0.0477 -0.49928,-0.33285 -0.10942,-0.28515 -0.33409,-0.43493 -0.49927,-0.33285 -0.16518,0.10209 -0.38985,-0.0477 -0.49927,-0.33285 -0.10943,-0.28515 -0.3341,-0.43493 -0.49928,-0.33285 -0.16518,0.10209 -0.38985,-0.0477 -0.49927,-0.33285 -0.10942,-0.28515 -0.3341,-0.43493 -0.49927,-0.33284 -0.16518,0.10208 -0.38985,-0.0477 -0.49928,-0.33285 -0.10942,-0.28515 -0.33409,-0.43494 -0.49927,-0.33285 -0.16518,0.10209 -0.38985,-0.0477 -0.49927,-0.33285 -0.10943,-0.28515 -0.3341,-0.43493 -0.49928,-0.33285 -0.16518,0.10209 -0.38985,-0.0477 -0.49927,-0.33285 -0.10942,-0.28515 -0.3341,-0.43493 -0.49927,-0.33285 -0.16518,0.10209 -0.38985,-0.0477 -0.49928,-0.33285 -0.10942,-0.28515 -0.33409,-0.43493 -0.49927,-0.33285 -0.16518,0.10209 -0.38985,-0.0477 -0.49927,-0.33284 -0.10943,-0.28516 -0.34979,-0.42524 -0.53415,-0.3113 -0.18436,0.11394 -0.3352,0.0486 -0.3352,-0.14532 0,-0.19387 -0.22468,-0.3525 -0.49928,-0.3525 -0.2746,0 -0.49927,-0.14978 -0.49927,-0.33285 0,-0.18306 -0.22467,-0.33284 -0.49927,-0.33284 -0.2746,0 -0.49928,-0.14979 -0.49928,-0.33285 0,-0.18307 -0.22467,-0.33285 -0.49927,-0.33285 -0.2746,0 -0.49927,-0.14978 -0.49927,-0.33285 0,-0.18307 -0.22468,-0.33285 -0.49928,-0.33285 -0.2746,0 -0.49927,-0.14978 -0.49927,-0.33285 0,-0.18307 -0.22467,-0.33285 -0.49927,-0.33285 -0.2746,0 -0.49928,-0.14978 -0.49928,-0.33285 0,-0.18306 -0.22467,-0.33285 -0.49927,-0.33285 -0.2746,0 -0.49927,-0.14978 -0.49927,-0.33284 0,-0.18307 -0.22468,-0.33285 -0.49928,-0.33285 -0.2746,0 -0.49927,-0.14979 -0.49927,-0.33285 0,-0.18307 -0.22467,-0.33285 -0.49927,-0.33285 -0.2746,0 -0.49928,-0.14978 -0.49928,-0.33285 0,-0.18307 -0.22467,-0.33285 -0.49927,-0.33285 -0.2746,0 -0.49927,-0.14978 -0.49927,-0.33285 0,-0.18306 -0.2122,-0.33285 -0.47154,-0.33285 -0.25934,0 -0.52146,-0.12668 -0.58249,-0.28152 -0.16307,-0.41378 -17.25087,-11.75227 -17.26279,-11.4546 -0.006,0.13906 -0.16455,-0.0124 -0.3533,-0.33665 -0.18875,-0.32422 -0.46807,-0.5123 -0.6207,-0.41797 -0.15263,0.0943 -0.36704,-0.0618 -0.47646,-0.34695 -0.10943,-0.28515 -0.3341,-0.43493 -0.49928,-0.33285 -0.16518,0.10209 -0.38985,-0.0477 -0.49927,-0.33285 -0.10943,-0.28515 -0.3341,-0.43493 -0.49927,-0.33285 -0.16518,0.10209 -0.38986,-0.0477 -0.49928,-0.33284 -0.10942,-0.28516 -0.3341,-0.43494 -0.49927,-0.33285 -0.16518,0.10208 -0.38985,-0.0477 -0.49927,-0.33285 -0.10943,-0.28515 -0.3341,-0.43494 -0.49928,-0.33285 -0.16518,0.10209 -0.38985,-0.0477 -0.49927,-0.33285 -0.10943,-0.28515 -0.3341,-0.43493 -0.49927,-0.33285 -0.16518,0.10209 -0.38986,-0.0477 -0.49928,-0.33285 -0.10942,-0.28515 -0.3341,-0.43493 -0.49927,-0.33285 -0.16518,0.10209 -0.38985,-0.0477 -0.49927,-0.33285 -0.10943,-0.28515 -0.3341,-0.43493 -0.49928,-0.33284 -0.16518,0.10208 -0.38985,-0.0477 -0.49927,-0.33285 -0.10943,-0.28516 -0.3341,-0.43494 -0.49927,-0.33285 -0.16518,0.10209 -0.38986,-0.0477 -0.49928,-0.33285 -0.10942,-0.28515 -0.3341,-0.43494 -0.49927,-0.33285 -0.16518,0.10209 -0.38985,-0.0477 -0.49927,-0.33285 -0.10943,-0.28515 -0.3341,-0.43493 -0.49928,-0.33285 -0.16518,0.10209 -0.38985,-0.0477 -0.49927,-0.33285 -0.10943,-0.28515 -0.3341,-0.43493 -0.49927,-0.33285 -0.16518,0.10209 -0.38986,-0.0477 -0.49928,-0.33285 -0.10942,-0.28515 -0.3341,-0.43493 -0.49927,-0.33284 -0.16518,0.10208 -0.38985,-0.0477 -0.49927,-0.33285 -0.10943,-0.28515 -0.3498,-0.42523 -0.53416,-0.3113 -0.18436,0.11394 -0.3352,0.0486 -0.3352,-0.14532 0,-0.19387 -0.22467,-0.3525 -0.49927,-0.3525 -0.2746,0 -0.49927,-0.14978 -0.49927,-0.33284 0,-0.18307 -0.22468,-0.33285 -0.49928,-0.33285 -0.2746,0 -0.49927,-0.14979 -0.49927,-0.33285 0,-0.18307 -0.21219,-0.33285 -0.47154,-0.33285 -0.25934,0 -0.52146,-0.12273 -0.58248,-0.27272 -0.14939,-0.36721 -3.97593,-2.86063 -4.60441,-3.00029 -0.2746,-0.061 -0.38717,9.9e-4 -0.25015,0.13817 0.44529,0.44529 70.30713,47.02521 70.56448,47.0484 0.1373,0.0124 0.24964,-0.0886 0.24964,-0.22434 z m -79.55089,-41.06572 c 0,-0.18306 -0.14978,-0.24028 -0.33285,-0.12713 -0.18307,0.11314 -0.33285,0.35549 -0.33285,0.53856 0,0.18306 0.14978,0.24028 0.33285,0.12713 0.18307,-0.11314 0.33285,-0.35549 0.33285,-0.53856 z m 0.99855,-0.66569 c 0,-0.18307 -0.14979,-0.24028 -0.33285,-0.12714 -0.18307,0.11314 -0.33285,0.35549 -0.33285,0.53856 0,0.18306 0.14978,0.24028 0.33285,0.12714 0.18306,-0.11315 0.33285,-0.3555 0.33285,-0.53856 z m 0.83212,-0.29357 c 0.11314,-0.18306 0.0471,-0.33285 -0.14678,-0.33285 -0.19387,0 -0.3525,0.14979 -0.3525,0.33285 0,0.18307 0.0661,0.33285 0.14678,0.33285 0.0807,0 0.23936,-0.14978 0.3525,-0.33285 z m 0.99854,-0.66569 c 0.11315,-0.18307 0.0471,-0.33285 -0.14678,-0.33285 -0.19387,0 -0.35249,0.14978 -0.35249,0.33285 0,0.18306 0.066,0.33284 0.14678,0.33284 0.0807,0 0.23935,-0.14978 0.35249,-0.33284 z m 6.71163,-0.1888 c 0.27741,-0.72294 -0.42686,-1.4028 -0.93097,-0.89869 -0.42606,0.42606 -0.16211,1.42033 0.37705,1.42033 0.19456,0 0.44382,-0.23474 0.55392,-0.52164 z m 53.00241,-15.25216 c -0.40478,-1.39309 -0.86266,-2.53288 -1.01751,-2.53288 -0.39227,0 -0.35272,0.58241 0.0567,0.83547 0.18606,0.11499 0.2585,0.33815 0.161,0.49592 -0.0975,0.15777 -0.0226,0.38244 0.16642,0.49927 0.18904,0.11684 0.25348,0.35842 0.1432,0.53686 -0.11028,0.17843 -0.0195,0.54254 0.20175,0.80912 0.22125,0.26658 0.30019,0.48469 0.17544,0.48469 -0.12475,0 -0.10794,0.18723 0.0374,0.41606 0.1453,0.22884 0.2852,0.5284 0.31089,0.6657 0.0257,0.1373 0.0654,0.34949 0.0883,0.47154 0.0229,0.12204 0.12503,0.13847 0.22699,0.0365 0.10196,-0.10197 -0.1458,-1.32519 -0.55057,-2.71827 z m -1.66425,-5.65843 c -0.40478,-1.39309 -0.86265,-2.53289 -1.0175,-2.53289 -0.39228,0 -0.35273,0.58242 0.0567,0.83548 0.18605,0.11499 0.2585,0.33815 0.161,0.49592 -0.0975,0.15777 -0.0226,0.38244 0.16642,0.49927 0.18904,0.11684 0.25348,0.35842 0.1432,0.53685 -0.11028,0.17844 -0.0195,0.54255 0.20175,0.80913 0.22124,0.26658 0.30019,0.48469 0.17544,0.48469 -0.12476,0 -0.10795,0.18723 0.0373,0.41606 0.14531,0.22884 0.28521,0.5284 0.31089,0.6657 0.0257,0.1373 0.0654,0.34949 0.0883,0.47154 0.0229,0.12204 0.12503,0.13847 0.22699,0.0365 0.10196,-0.10196 -0.1458,-1.32518 -0.55058,-2.71826 z M 76.851491,160.52004 c -0.06102,-0.0787 0.09462,-0.3907 0.345867,-0.69344 0.251251,-0.30274 0.345247,-0.55043 0.208882,-0.55043 -0.136365,0 -0.06692,-0.21811 0.154326,-0.48469 0.221241,-0.26658 0.312029,-0.63069 0.201749,-0.80913 -0.110279,-0.17843 -0.04584,-0.42002 0.143199,-0.53685 0.189038,-0.11683 0.263929,-0.3415 0.166424,-0.49927 -0.0975,-0.15777 -0.02506,-0.38093 0.160996,-0.49592 0.409457,-0.25306 0.449006,-0.83548 0.05673,-0.83548 -0.154851,0 -0.604197,1.11044 -0.998547,2.46764 -0.748457,2.57589 -0.847007,3.0989 -0.522842,2.77473 0.106791,-0.10679 0.144237,-0.25851 0.08321,-0.33716 z M 178.573,159.81702 c -0.11997,-0.478 -0.35438,-0.78489 -0.5209,-0.68197 -0.16653,0.10291 -0.19029,0.364 -0.0528,0.58018 0.13748,0.21618 0.27098,0.5054 0.29667,0.6427 0.0257,0.1373 0.0654,0.34949 0.0883,0.47154 0.0229,0.12204 0.12378,0.13971 0.22423,0.0393 0.10044,-0.10044 0.0845,-0.57372 -0.0355,-1.05172 z m -0.6657,-2.32994 c -0.11997,-0.47801 -0.35437,-0.78489 -0.5209,-0.68198 -0.16653,0.10292 -0.19028,0.364 -0.0528,0.58019 0.13748,0.21618 0.27098,0.5054 0.29667,0.6427 0.0257,0.1373 0.0654,0.34949 0.0883,0.47153 0.0229,0.12205 0.12378,0.13972 0.22423,0.0393 0.10044,-0.10044 0.0845,-0.57372 -0.0355,-1.05172 z m -0.47996,-1.5394 c 0,-0.18307 -0.15863,-0.33285 -0.3525,-0.33285 -0.19387,0 -0.25992,0.14978 -0.14678,0.33285 0.11314,0.18307 0.27177,0.33285 0.3525,0.33285 0.0807,0 0.14678,-0.14978 0.14678,-0.33285 z m -98.66467,-1.25089 c -0.102125,-0.10212 -0.01584,-0.39031 0.19171,-0.64041 0.207565,-0.2501 0.281158,-0.55096 0.163536,-0.66858 -0.299684,-0.29969 -0.45609,-0.0806 -0.734618,1.02918 -0.179535,0.71532 -0.137832,0.8999 0.161515,0.7149 0.221944,-0.13718 0.319981,-0.33296 0.217857,-0.43509 z m 98.14551,-0.5405 c -0.12029,-0.47927 -0.35225,-0.8714 -0.51548,-0.8714 -0.36151,0 -0.38863,0.46288 -0.0471,0.80439 0.1373,0.1373 0.26836,0.38693 0.29124,0.55474 0.0909,0.66676 0.13175,0.74198 0.30744,0.56629 0.10045,-0.10044 0.0842,-0.57475 -0.0361,-1.05402 z m -97.479813,-1.78944 c -0.102124,-0.10213 -0.01584,-0.39031 0.191711,-0.64041 0.207565,-0.2501 0.281158,-0.55097 0.163536,-0.66859 -0.299684,-0.29968 -0.45609,-0.0806 -0.734618,1.02918 -0.179535,0.71533 -0.137833,0.89991 0.161515,0.7149 0.221944,-0.13717 0.319981,-0.33296 0.217856,-0.43508 z m 96.814113,-0.5405 c -0.12029,-0.47927 -0.35225,-0.8714 -0.51547,-0.8714 -0.36151,0 -0.38863,0.46288 -0.0471,0.80438 0.1373,0.1373 0.26836,0.38694 0.29124,0.55475 0.0909,0.66676 0.13176,0.74197 0.30744,0.56629 0.10045,-0.10044 0.0842,-0.57475 -0.0361,-1.05402 z m -96.173448,-1.5371 c 0.113142,-0.18307 0.04709,-0.33285 -0.14678,-0.33285 -0.193871,0 -0.352494,0.14978 -0.352494,0.33285 0,0.18307 0.06605,0.33285 0.14678,0.33285 0.08073,0 0.239352,-0.14978 0.352494,-0.33285 z m 95.694058,0 c 0,-0.18307 -0.15862,-0.33285 -0.35249,-0.33285 -0.19387,0 -0.25992,0.14978 -0.14678,0.33285 0.11314,0.18307 0.27176,0.33285 0.35249,0.33285 0.0807,0 0.14678,-0.14978 0.14678,-0.33285 z m -95.194785,-1.35104 c 0,-0.17226 -0.149782,-0.3132 -0.332849,-0.3132 -0.183067,0 -0.332849,0.23351 -0.332849,0.51891 0,0.28541 0.149782,0.42635 0.332849,0.31321 0.183067,-0.11314 0.332849,-0.34666 0.332849,-0.51892 z m 94.861935,0.18607 c 0,-0.2746 -0.14508,-0.49927 -0.3224,-0.49927 -0.17732,0 -0.23619,0.22467 -0.13082,0.49927 0.10538,0.2746 0.25046,0.49927 0.32241,0.49927 0.0719,0 0.13081,-0.22467 0.13081,-0.49927 z m -96.200008,-2.67084 c -0.231569,-0.27902 -0.507687,-0.42066 -0.6136,-0.31475 -0.105912,0.10591 0.02776,0.33191 0.297068,0.50222 0.704631,0.44562 0.7967,0.3911 0.316532,-0.18747 z m 97.531408,0.008 c 0.23114,-0.27851 0.26718,-0.49928 0.0815,-0.49928 -0.18307,0 -0.51931,0.22468 -0.74721,0.49928 -0.23114,0.27851 -0.26718,0.49927 -0.0815,0.49927 0.18307,0 0.51931,-0.22467 0.74721,-0.49927 z m -99.188975,-1.3314 c -0.227899,-0.2746 -0.564142,-0.49927 -0.747209,-0.49927 -0.185673,0 -0.149629,0.22076 0.08151,0.49927 0.227898,0.2746 0.564142,0.49928 0.747209,0.49928 0.185673,0 0.149629,-0.22077 -0.08151,-0.49928 z M 178.6225,144.71648 c -0.23083,-0.23083 -0.86232,0.23817 -0.86232,0.64044 0,0.22071 0.19099,0.19545 0.50732,-0.0671 0.27903,-0.23157 0.43877,-0.48958 0.355,-0.57336 z M 75.915097,143.80674 c -0.231569,-0.27903 -0.575692,-0.50732 -0.764717,-0.50732 -0.189025,0 -0.07175,0.30049 0.260614,0.66774 0.688352,0.76062 1.14729,0.61458 0.504103,-0.16042 z m 104.507883,-0.57855 c 0,-0.46856 -0.62085,0.0296 -1.04519,0.83868 -0.38042,0.7253 -0.37812,0.72597 0.33105,0.0963 0.39278,-0.34874 0.71414,-0.76948 0.71414,-0.93498 z M 74.254098,142.65226 c -0.373387,-0.69767 -1.008469,-1.20985 -1.008469,-0.8133 0,0.25673 1.012363,1.46046 1.228269,1.46046 0.0696,0 -0.02932,-0.29122 -0.2198,-0.64716 z M 182.08722,141.8968 c 0,-0.46857 -0.62084,0.0296 -1.04519,0.83867 -0.38041,0.7253 -0.37811,0.72597 0.33106,0.0963 0.39277,-0.34874 0.71413,-0.76948 0.71413,-0.93497 z M 72.496719,141.21912 c -0.273492,-0.4119 -0.663331,-0.74891 -0.866309,-0.74891 -0.202981,0 -0.605106,-0.33701 -0.893613,-0.74891 -0.288507,-0.4119 -0.704708,-0.74891 -0.92489,-0.74891 -0.220183,0 -0.591044,-0.30538 -0.824134,-0.67861 -0.233091,-0.37324 -0.5523,-0.5992 -0.709355,-0.50214 -0.157054,0.0971 -0.53319,-0.20146 -0.83586,-0.66339 -0.302666,-0.46193 -0.677121,-0.76149 -0.832122,-0.66569 -0.154998,0.0958 -0.529453,-0.20377 -0.832122,-0.6657 -0.302666,-0.46193 -0.685992,-0.75601 -0.85183,-0.65352 -0.165839,0.10249 -0.464092,-0.11741 -0.662786,-0.48867 -0.198694,-0.37126 -0.575392,-0.67502 -0.837112,-0.67502 -0.261719,0 -0.636174,-0.29956 -0.832122,-0.66569 -0.195948,-0.36614 -0.539644,-0.6657 -0.763768,-0.6657 -0.224124,0 -0.594578,-0.29957 -0.823232,-0.6657 -0.228654,-0.36613 -0.603109,-0.6657 -0.832122,-0.6657 -0.229014,0 -0.603469,-0.29956 -0.832123,-0.6657 -0.228653,-0.36613 -0.603108,-0.66569 -0.832122,-0.66569 -0.229013,0 -0.612575,-0.31415 -0.852363,-0.69811 -0.239787,-0.38396 -0.5245,-0.60959 -0.632695,-0.50139 -0.108196,0.10819 -0.405876,-0.1019 -0.661511,-0.46686 -0.255635,-0.36497 -0.644941,-0.66359 -0.865124,-0.66359 -0.220183,0 -0.587415,-0.29956 -0.816069,-0.66569 -0.228654,-0.36614 -0.603109,-0.6657 -0.832122,-0.6657 -0.229014,0 -0.607097,-0.30538 -0.840188,-0.67861 -0.23309,-0.37324 -0.552299,-0.5992 -0.709354,-0.50214 -0.157055,0.0971 -0.533191,-0.20146 -0.83586,-0.66338 -0.302666,-0.46193 -0.685992,-0.75602 -0.85183,-0.65352 -0.165839,0.10249 -0.464091,-0.11741 -0.662786,-0.48867 -0.198694,-0.37126 -0.544634,-0.67502 -0.768757,-0.67502 -0.224124,0 -0.594578,-0.29956 -0.823232,-0.6657 -0.228654,-0.36613 -0.603109,-0.66569 -0.832123,-0.66569 -0.229013,0 -0.607096,-0.30538 -0.840187,-0.67862 -0.23309,-0.37323 -0.56117,-0.59371 -0.729062,-0.48995 -0.167896,0.10377 -0.467829,-0.1151 -0.666523,-0.48636 -0.198694,-0.37126 -0.544634,-0.67502 -0.768758,-0.67502 -0.224124,0 -0.594578,-0.29956 -0.823232,-0.66569 -0.228654,-0.36614 -0.603109,-0.6657 -0.832122,-0.6657 -0.229014,0 -0.607097,-0.30538 -0.840187,-0.67861 -0.233091,-0.37324 -0.56117,-0.59372 -0.729063,-0.48995 -0.167895,0.10376 -0.467829,-0.1151 -0.666523,-0.48636 -0.198694,-0.37127 -0.544634,-0.67502 -0.768758,-0.67502 -0.224123,0 -0.594578,-0.29957 -0.823232,-0.6657 -0.228653,-0.36614 -0.603108,-0.6657 -0.832122,-0.6657 -0.229013,0 -0.607096,-0.30538 -0.840187,-0.67861 -0.233091,-0.37324 -0.56117,-0.59372 -0.729062,-0.48995 -0.167896,0.10376 -0.467829,-0.1151 -0.666523,-0.48636 -0.198695,-0.37126 -0.544634,-0.67502 -0.768758,-0.67502 -0.224124,0 -0.594578,-0.29957 -0.823232,-0.6657 -0.228654,-0.36613 -0.603108,-0.6657 -0.832121,-0.6657 -0.229013,0 -0.607098,-0.30537 -0.840189,-0.67861 -0.23309,-0.37324 -0.561169,-0.59372 -0.729063,-0.48995 -0.167894,0.10376 -0.467829,-0.1151 -0.666522,-0.48636 -0.198693,-0.37126 -0.544634,-0.67502 -0.768757,-0.67502 -0.224123,0 -0.594578,-0.29956 -0.823232,-0.6657 -0.228654,-0.36613 -0.603109,-0.6657 -0.832122,-0.6657 -0.229013,0 -0.607098,-0.30537 -0.840188,-0.67861 -0.233091,-0.37324 -0.561169,-0.59371 -0.729064,-0.48995 -0.167894,0.10376 -0.467829,-0.1151 -0.666522,-0.48636 -0.198693,-0.37126 -0.544633,-0.67502 -0.768757,-0.67502 -0.224123,0 -0.594577,-0.29956 -0.823231,-0.6657 -0.228655,-0.36613 -0.623115,-0.66569 -0.876577,-0.66569 -0.253463,0 -0.547057,-0.22468 -0.652431,-0.49928 -0.105374,-0.2746 -0.415693,-0.49927 -0.689598,-0.49927 -0.273905,0 -0.658331,-0.29956 -0.85428,-0.6657 -0.195949,-0.36613 -0.539644,-0.6657 -0.763767,-0.6657 -0.224123,0 -0.598208,-0.30537 -0.831298,-0.67861 -0.23309,-0.373235 -0.561169,-0.593715 -0.729064,-0.489949 -0.167893,0.103762 -0.467829,-0.115099 -0.666521,-0.486359 -0.198694,-0.371263 -0.544634,-0.675021 -0.768757,-0.675021 -0.224123,0 -0.594578,-0.299564 -0.823232,-0.665697 -0.228654,-0.366134 -0.630299,-0.665698 -0.892544,-0.665698 -0.262245,0 -0.583054,-0.171907 -0.712909,-0.382018 -0.177084,-0.286529 3.998715,-0.332556 16.706014,-0.184135 9.318162,0.108835 24.056758,0.08276 32.752435,-0.05795 14.483424,-0.234359 13.019182,-0.260807 -17.446831,-0.315138 -18.291432,-0.03262 -33.149174,0.04867 -33.017202,0.180644 0.393812,0.39381 57.942413,45.651541 58.076944,45.673241 0.0681,0.011 -0.09995,-0.31705 -0.373447,-0.72895 z M 211.71077,119.00573 c 15.46915,-12.13117 28.34506,-22.262362 28.61312,-22.513759 0.41343,-0.387733 -4.56153,-0.448092 -32.78562,-0.397785 -30.4741,0.05432 -31.94305,0.08083 -17.46268,0.315138 8.69568,0.140705 23.44864,0.166578 32.78435,0.05749 15.69971,-0.18345 16.94005,-0.157404 16.52152,0.346895 -0.24888,0.29988 -0.58042,0.466181 -0.73675,0.369562 -0.15634,-0.09662 -0.47496,0.129701 -0.70805,0.502938 -0.23309,0.373237 -0.61118,0.678612 -0.84019,0.678612 -0.22901,0 -0.60347,0.299564 -0.83212,0.665698 -0.22866,0.366134 -0.59911,0.665698 -0.82324,0.665698 -0.22412,0 -0.57006,0.303758 -0.76875,0.675023 -0.1987,0.37126 -0.49863,0.59012 -0.66653,0.48636 -0.16789,-0.10377 -0.49597,0.11671 -0.72906,0.48995 -0.23309,0.37323 -0.61117,0.67861 -0.84019,0.67861 -0.22901,0 -0.60346,0.29956 -0.83212,0.6657 -0.22865,0.36613 -0.59911,0.66569 -0.82323,0.66569 -0.22412,0 -0.57006,0.30376 -0.76876,0.67503 -0.19869,0.37126 -0.49863,0.59012 -0.66652,0.48635 -0.16789,-0.10376 -0.49597,0.11672 -0.72906,0.48995 -0.23309,0.37324 -0.61118,0.67862 -0.84019,0.67862 -0.22901,0 -0.60347,0.29956 -0.83212,0.6657 -0.22866,0.36613 -0.60908,0.66569 -0.84539,0.66569 -0.23631,0 -0.51587,0.22468 -0.62124,0.49928 -0.10538,0.2746 -0.39897,0.49927 -0.65244,0.49927 -0.25346,0 -0.64792,0.29956 -0.87657,0.6657 -0.22866,0.36613 -0.59589,0.6657 -0.81607,0.6657 -0.22018,0 -0.60949,0.29861 -0.86513,0.66358 -0.25563,0.36496 -0.55331,0.57505 -0.66151,0.46686 -0.10819,-0.1082 -0.3929,0.11743 -0.63269,0.50139 -0.23979,0.38396 -0.62335,0.69811 -0.85237,0.69811 -0.22901,0 -0.60346,0.29956 -0.83212,0.6657 -0.22865,0.36613 -0.60311,0.66569 -0.83212,0.66569 -0.22901,0 -0.60347,0.29957 -0.83212,0.6657 -0.22866,0.36613 -0.60908,0.6657 -0.84539,0.6657 -0.23631,0 -0.51587,0.22467 -0.62124,0.49927 -0.10538,0.2746 -0.39897,0.49928 -0.65243,0.49928 -0.25347,0 -0.64793,0.29956 -0.87658,0.66569 -0.22866,0.36614 -0.60311,0.6657 -0.83212,0.6657 -0.22902,0 -0.60347,0.29956 -0.83213,0.6657 -0.22865,0.36613 -0.60908,0.6657 -0.84539,0.6657 -0.23631,0 -0.51587,0.22467 -0.62124,0.49927 -0.10538,0.2746 -0.39897,0.49927 -0.65243,0.49927 -0.25346,0 -0.64792,0.29957 -0.87658,0.6657 -0.22865,0.36613 -0.60311,0.6657 -0.83212,0.6657 -0.22901,0 -0.60347,0.29956 -0.83212,0.6657 -0.22866,0.36613 -0.60908,0.66569 -0.84539,0.66569 -0.23631,0 -0.51587,0.22468 -0.62124,0.49928 -0.10538,0.2746 -0.39897,0.49927 -0.65243,0.49927 -0.25347,0 -0.64793,0.29957 -0.87658,0.6657 -0.22866,0.36613 -0.59589,0.6657 -0.81607,0.6657 -0.22018,0 -0.60949,0.29861 -0.86512,0.66358 -0.25564,0.36497 -0.55332,0.57505 -0.66152,0.46686 -0.10819,-0.1082 -0.3929,0.11743 -0.63269,0.50139 -0.23979,0.38396 -0.62335,0.69811 -0.85236,0.69811 -0.22902,0 -0.60347,0.29956 -0.83213,0.6657 -0.22865,0.36613 -0.6031,0.66569 -0.83212,0.66569 -0.22901,0 -0.60347,0.29957 -0.83212,0.6657 -0.22865,0.36614 -0.59911,0.6657 -0.82323,0.6657 -0.22413,0 -0.57007,0.30376 -0.76876,0.67502 -0.19869,0.37126 -0.49863,0.59012 -0.66652,0.48636 -0.1679,-0.10377 -0.49597,0.11671 -0.72907,0.48995 -0.23309,0.37324 -0.61117,0.67861 -0.84018,0.67861 -0.22902,0 -0.60347,0.29957 -0.83213,0.6657 -0.22865,0.36613 -0.6031,0.6657 -0.83212,0.6657 -0.22901,0 -0.60347,0.29956 -0.83212,0.6657 -0.22865,0.36613 -0.60311,0.66569 -0.83212,0.66569 -0.22902,0 -0.60347,0.29957 -0.83212,0.6657 -0.22866,0.36614 -0.59911,0.6657 -0.82324,0.6657 -0.22412,0 -0.56782,0.29956 -0.76376,0.6657 -0.19595,0.36613 -0.57041,0.6657 -0.83213,0.6657 -0.26172,0 -0.63841,0.30375 -0.83711,0.67502 -0.19869,0.37126 -0.49863,0.59012 -0.66652,0.48635 -0.16789,-0.10376 -0.49597,0.11672 -0.72906,0.48996 -0.23309,0.37323 -0.60395,0.67861 -0.82414,0.67861 -0.22018,0 -0.59605,0.27198 -0.83527,0.6044 -0.23921,0.33242 -0.68725,0.69842 -0.99565,0.81332 -0.30839,0.11491 -0.74208,0.55439 -0.96376,0.97663 -0.38423,0.73184 -0.37358,0.74267 0.22786,0.23169 0.34701,-0.29482 13.2875,-10.46153 28.75665,-22.5927 z M 99.724688,96.063308 c -0.10348,-0.16743 -0.04176,-0.354657 0.137154,-0.416061 0.178908,-0.0614 0.393388,-0.486096 0.476608,-0.943764 0.0832,-0.457667 0.16245,-0.869567 0.17605,-0.915334 0.0136,-0.04577 0.0375,-0.195549 0.053,-0.332849 0.0156,-0.1373 0.18369,-0.436864 0.37361,-0.665698 0.18991,-0.228833 0.23373,-0.416061 0.0974,-0.416061 -0.13636,0 -0.0615,-0.224673 0.16643,-0.499273 0.2279,-0.274601 0.30279,-0.499274 0.16642,-0.499274 -0.13636,0 -0.0615,-0.224673 0.16643,-0.499273 0.22789,-0.2746 0.28368,-0.501567 0.12396,-0.504369 -0.15971,-0.0027 -0.10694,-0.121643 0.11727,-0.264086 0.22421,-0.142446 0.4752,-0.626941 0.55775,-1.076663 0.0825,-0.449719 0.16122,-0.855119 0.17483,-0.900885 0.0136,-0.04577 -0.0127,-0.135084 -0.0585,-0.198481 -0.0458,-0.06339 0.12236,-0.362959 0.3736,-0.665698 0.25125,-0.302736 0.34525,-0.550429 0.20889,-0.550429 -0.13637,0 -0.0615,-0.224673 0.16642,-0.499273 0.2279,-0.274601 0.30279,-0.499274 0.16642,-0.499274 -0.13636,0 -0.0615,-0.224673 0.16643,-0.499273 0.2279,-0.274601 0.28368,-0.501567 0.12397,-0.504369 -0.15972,-0.0027 -0.10695,-0.121643 0.11726,-0.264086 0.22421,-0.142446 0.4752,-0.626941 0.55775,-1.076663 0.0826,-0.449719 0.17995,-0.855119 0.21644,-0.900886 0.0365,-0.04577 0.10378,-0.232994 0.14955,-0.416061 0.0458,-0.183067 0.12066,-0.40774 0.16642,-0.499273 0.0458,-0.09153 0.12066,-0.316207 0.16643,-0.499273 0.0458,-0.183067 0.12066,-0.40774 0.16642,-0.499274 0.0458,-0.09153 0.12066,-0.316206 0.16643,-0.499273 l 0.12482,-0.499274 c 0.0229,-0.09153 0.0288,-0.262015 0.0132,-0.378848 -0.0157,-0.11683 0.13036,-0.310561 0.32444,-0.43051 0.19408,-0.119946 0.42042,-0.586037 0.50297,-1.035759 0.0825,-0.449719 0.16123,-0.855119 0.17483,-0.900886 0.0136,-0.04577 0.0375,-0.195549 0.053,-0.332849 0.0156,-0.1373 0.18369,-0.436864 0.3736,-0.665698 0.18992,-0.228833 0.23373,-0.416061 0.0974,-0.416061 -0.13637,0 -0.0615,-0.224673 0.16642,-0.499273 0.2279,-0.2746 0.30279,-0.499273 0.16642,-0.499273 -0.13636,0 -0.0615,-0.224674 0.16643,-0.499274 0.2279,-0.2746 0.28368,-0.501567 0.12397,-0.504369 -0.15972,-0.0027 -0.10695,-0.121643 0.11726,-0.264086 0.22421,-0.142446 0.4752,-0.626941 0.55775,-1.076663 0.0826,-0.449719 0.17995,-0.855119 0.21644,-0.900885 0.0365,-0.04577 0.10378,-0.232995 0.14955,-0.416061 0.0458,-0.183067 0.12066,-0.40774 0.16642,-0.499274 0.0458,-0.09153 0.12066,-0.316206 0.16643,-0.499273 0.0458,-0.183067 0.12066,-0.40774 0.16642,-0.499273 0.0458,-0.09153 0.12066,-0.316207 0.16643,-0.499274 l 0.12482,-0.499273 c 0.0229,-0.09153 0.0288,-0.262015 0.0132,-0.378849 -0.0156,-0.11683 0.13036,-0.310561 0.32444,-0.43051 0.19408,-0.119945 0.42042,-0.586037 0.50297,-1.035759 0.0826,-0.449719 0.17995,-0.855119 0.21643,-0.900886 0.0365,-0.04577 0.10379,-0.232994 0.14956,-0.416061 0.0458,-0.183067 0.12065,-0.40774 0.16642,-0.499273 0.0458,-0.09153 0.12066,-0.316207 0.16643,-0.499273 0.0458,-0.183067 0.12065,-0.40774 0.16642,-0.499274 0.0458,-0.09153 0.12066,-0.316206 0.16642,-0.499273 l 0.12482,-0.499273 c 0.0229,-0.09153 0.0288,-0.262016 0.0132,-0.378849 -0.0156,-0.11683 0.13037,-0.310561 0.32445,-0.43051 0.19408,-0.119946 0.42041,-0.586037 0.50297,-1.035759 0.0825,-0.449719 0.16122,-0.855119 0.17483,-0.900886 0.0136,-0.04577 -0.0127,-0.135083 -0.0585,-0.198481 -0.0458,-0.06339 0.12235,-0.362958 0.3736,-0.665698 0.25124,-0.302736 0.34524,-0.550429 0.20887,-0.550429 -0.13636,0 -0.0615,-0.224673 0.16643,-0.499273 0.2279,-0.2746 0.30279,-0.499273 0.16642,-0.499273 -0.13636,0 -0.0615,-0.224673 0.16643,-0.499274 0.22789,-0.2746 0.28368,-0.501566 0.12396,-0.504369 -0.15971,-0.0027 -0.10694,-0.121643 0.11727,-0.264086 0.22421,-0.142446 0.4752,-0.626941 0.55775,-1.076663 0.0826,-0.449719 0.17995,-0.855119 0.21643,-0.900885 0.0365,-0.04577 0.10379,-0.232994 0.14956,-0.416061 0.0458,-0.183067 0.12066,-0.40774 0.16642,-0.499274 0.0458,-0.09153 0.12066,-0.316206 0.16643,-0.499273 0.0458,-0.183067 0.12065,-0.40774 0.16642,-0.499273 0.0458,-0.09153 0.12066,-0.316207 0.16643,-0.499274 0.0458,-0.183067 0.11967,-0.445185 0.16423,-0.582485 0.0446,-0.137301 0.0633,-0.361974 0.0416,-0.499274 -0.0217,-0.1373 0.11036,-0.249636 0.29343,-0.249636 0.18307,0 0.31511,-0.112337 0.29343,-0.249637 -0.0217,-0.1373 -0.003,-0.361973 0.0416,-0.499273 0.0446,-0.137301 0.11847,-0.399419 0.16423,-0.582486 0.0458,-0.183067 0.12066,-0.40774 0.16643,-0.499273 0.0458,-0.09153 0.12065,-0.316207 0.16642,-0.499274 0.0458,-0.183067 0.12066,-0.40774 0.16643,-0.499273 0.0458,-0.09153 0.12065,-0.316207 0.16642,-0.499273 0.0458,-0.183067 0.12066,-0.40774 0.16642,-0.499274 0.0458,-0.09153 0.10725,-0.278761 0.13662,-0.416061 0.0294,-0.1373 0.24059,-0.586646 0.46938,-0.998547 0.22878,-0.4119 0.31747,-0.74891 0.19708,-0.74891 -0.12039,0 -0.0324,-0.224673 0.19547,-0.499273 0.2279,-0.2746 0.30279,-0.499273 0.16643,-0.499273 -0.13637,0 -0.0615,-0.224673 0.16642,-0.499274 0.2279,-0.2746 0.30279,-0.499273 0.16642,-0.499273 -0.13636,0 -0.0615,-0.224673 0.16643,-0.499273 0.2279,-0.274601 0.30279,-0.499274 0.16642,-0.499274 -0.13636,0 -0.0615,-0.224673 0.16643,-0.499273 0.2279,-0.2746 0.31768,-0.499273 0.1995,-0.499273 -0.11816,0 0.0305,-0.374455 0.33038,-0.832123 0.29987,-0.457667 0.43477,-0.832122 0.29977,-0.832122 -0.13501,0 -0.059,-0.224673 0.16889,-0.499273 0.2279,-0.274601 0.30279,-0.499274 0.16643,-0.499274 -0.13637,0 -0.0615,-0.224673 0.16642,-0.499273 0.2279,-0.2746 0.30279,-0.499273 0.16643,-0.499273 -0.13637,0 -0.0615,-0.224673 0.16642,-0.499274 0.2279,-0.2746 0.30279,-0.499273 0.16643,-0.499273 -0.13637,0 -0.0615,-0.224673 0.16642,-0.499273 0.2279,-0.274601 0.28368,-0.501567 0.12397,-0.504371 -0.15972,-0.0028 -0.10695,-0.121641 0.11726,-0.264085 0.22421,-0.142444 0.4752,-0.626942 0.55775,-1.076662 0.0826,-0.44972 0.17995,-0.855119 0.21644,-0.900886 0.0365,-0.04577 0.10379,-0.232994 0.14955,-0.416061 0.0458,-0.183067 0.12066,-0.40774 0.16643,-0.499273 0.0458,-0.09153 0.12065,-0.316207 0.16642,-0.499274 0.0458,-0.183067 0.12066,-0.40774 0.16643,-0.499273 0.0458,-0.09153 0.12065,-0.316206 0.16642,-0.499273 l 0.12482,-0.499274 c 0.0229,-0.09153 0.0288,-0.262014 0.0132,-0.378847 -0.0156,-0.116833 0.13036,-0.310562 0.32444,-0.43051 0.19408,-0.119948 0.42042,-0.58604 0.50297,-1.035761 0.0825,-0.44972 0.17995,-0.855118 0.21644,-0.900885 0.0365,-0.04577 0.10378,-0.232994 0.14955,-0.416061 0.0458,-0.183067 0.12066,-0.40774 0.16642,-0.499274 0.0458,-0.09153 0.12066,-0.316206 0.16643,-0.499273 l 0.12482,-0.499273 c 0.0229,-0.09153 0.004,-0.218295 -0.0416,-0.281692 -0.0458,-0.0634 0.12236,-0.362961 0.3736,-0.665698 0.25125,-0.302737 0.32614,-0.552724 0.16643,-0.555527 -0.15972,-0.0028 -0.10695,-0.121642 0.11726,-0.264086 0.22421,-0.142443 0.4752,-0.626942 0.55775,-1.076662 0.0826,-0.44972 0.16123,-0.855119 0.17483,-0.900885 0.0136,-0.04577 0.0375,-0.195549 0.053,-0.332849 0.0156,-0.137301 0.18369,-0.436865 0.37361,-0.665698 0.18991,-0.228834 0.23373,-0.416061 0.0974,-0.416061 -0.13636,0 -0.0615,-0.224673 0.16643,-0.499274 0.22789,-0.2746 0.30278,-0.499273 0.16642,-0.499273 -0.13636,0 -0.0536,-0.234138 0.18388,-0.520305 0.38853,-0.468147 0.46682,-0.459806 0.78097,0.08321 0.19204,0.331934 0.3718,0.715854 0.39946,0.853154 0.0277,0.1373 0.0877,0.324528 0.13351,0.416061 0.0458,0.09153 0.12066,0.316207 0.16642,0.499274 0.0458,0.183066 0.11968,0.445185 0.16424,0.582485 0.0446,0.1373 0.0633,0.361973 0.0416,0.499274 -0.0217,0.1373 0.13533,0.249636 0.34891,0.249636 0.21358,0 0.28977,0.09856 0.16931,0.219012 -0.12045,0.120456 -0.0522,0.42002 0.15171,0.665698 0.20389,0.245677 0.25914,0.446686 0.12278,0.446686 -0.13637,0 -0.0615,0.224673 0.16642,0.499273 0.2279,0.2746 0.30279,0.499273 0.16643,0.499273 -0.13637,0 -0.0615,0.224674 0.16642,0.499274 0.2279,0.2746 0.31586,0.499273 0.19547,0.499273 -0.12039,0 -0.0317,0.33701 0.19709,0.74891 0.22878,0.411901 0.44001,0.861247 0.46937,0.998547 0.0294,0.1373 0.0908,0.324528 0.13662,0.416061 0.0458,0.09153 0.12066,0.316207 0.16642,0.499273 0.0458,0.183067 0.12066,0.40774 0.16643,0.499274 0.0458,0.09153 0.12065,0.316206 0.16642,0.499273 0.0458,0.183067 0.11967,0.445186 0.16424,0.582486 0.0446,0.1373 0.0633,0.361973 0.0416,0.499273 -0.0217,0.1373 0.11037,0.249637 0.29343,0.249637 0.18307,0 0.31512,0.112336 0.29344,0.249636 -0.0217,0.137301 -0.003,0.361974 0.0416,0.499274 0.0446,0.1373 0.11847,0.399418 0.16424,0.582485 0.0458,0.183067 0.12066,0.40774 0.16642,0.499274 0.0458,0.09153 0.12066,0.316206 0.16643,0.499273 0.0458,0.183067 0.12065,0.40774 0.16642,0.499273 0.0458,0.09153 0.12066,0.316207 0.16643,0.499274 0.0458,0.183067 0.11306,0.370294 0.14955,0.416061 0.0365,0.04577 0.13388,0.451165 0.21643,0.900885 0.0826,0.449723 0.33354,0.934217 0.55775,1.076663 0.22422,0.142443 0.27698,0.261283 0.11727,0.264086 -0.15972,0.0027 -0.10393,0.229769 0.12397,0.504369 0.2279,0.274601 0.30279,0.499274 0.16642,0.499274 -0.13636,0 -0.0615,0.224673 0.16643,0.499273 0.22789,0.2746 0.30279,0.499273 0.16642,0.499273 -0.13636,0 -0.0615,0.224673 0.16642,0.499274 0.2279,0.2746 0.30279,0.499273 0.16643,0.499273 -0.13637,0 -0.0811,0.201008 0.12278,0.446687 0.20389,0.245675 0.27216,0.545239 0.15171,0.665697 -0.12046,0.120455 -0.0443,0.219012 0.16931,0.219012 0.21358,0 0.37058,0.112336 0.34891,0.249636 -0.0217,0.137301 -0.003,0.361974 0.0416,0.499274 0.0446,0.1373 0.11847,0.399418 0.16424,0.582485 0.0458,0.183067 0.12065,0.40774 0.16642,0.499274 0.0458,0.09153 0.12066,0.316206 0.16642,0.499273 0.0458,0.183067 0.12066,0.40774 0.16643,0.499273 0.0458,0.09153 0.12066,0.316207 0.16642,0.499274 0.0458,0.183067 0.11307,0.370294 0.14956,0.416061 0.0365,0.04577 0.13388,0.451167 0.21643,0.900885 0.0825,0.449722 0.33354,0.934217 0.55775,1.076663 0.22421,0.142443 0.27698,0.261283 0.11727,0.264086 -0.15972,0.0027 -0.10393,0.229769 0.12396,0.504369 0.2279,0.274601 0.30279,0.499274 0.16643,0.499274 -0.13637,0 -0.0615,0.224673 0.16642,0.499273 0.2279,0.2746 0.31229,0.499273 0.18754,0.499273 -0.12475,0 -0.10998,0.187228 0.0328,0.416061 0.14281,0.228834 0.30521,0.709125 0.3609,1.06731 0.0557,0.358189 0.28469,0.767793 0.5089,0.910239 0.22421,0.142443 0.27698,0.261283 0.11727,0.264086 -0.15972,0.0027 -0.10394,0.229769 0.12396,0.504369 0.2279,0.2746 0.31229,0.499273 0.18754,0.499273 -0.12476,0 -0.10794,0.187228 0.0374,0.416061 0.1453,0.228834 0.2852,0.528398 0.31089,0.665698 0.0257,0.1373 0.0841,0.324528 0.12991,0.416061 0.0458,0.09153 0.12066,0.316207 0.16642,0.499274 0.0458,0.183067 0.11307,0.370294 0.14956,0.416061 0.0365,0.04577 0.13388,0.451166 0.21643,0.900885 0.0826,0.449722 0.33354,0.934217 0.55775,1.076663 0.22421,0.142443 0.27698,0.261283 0.11727,0.264086 -0.15972,0.0027 -0.10393,0.229769 0.12397,0.504369 0.22789,0.274601 0.30279,0.499274 0.16642,0.499274 -0.13636,0 -0.0615,0.224673 0.16643,0.499273 0.22789,0.2746 0.30278,0.499273 0.16642,0.499273 -0.13637,0 -0.0615,0.224673 0.16642,0.499274 0.2279,0.2746 0.30279,0.499273 0.16643,0.499273 -0.13637,0 -0.0811,0.201007 0.12278,0.446686 0.20389,0.245676 0.27216,0.54524 0.15171,0.665698 -0.12046,0.120455 -0.0193,0.219012 0.22479,0.219012 0.24409,0 0.34524,0.09856 0.22478,0.219011 -0.12045,0.120458 -0.0522,0.420022 0.15171,0.665698 0.20389,0.245679 0.25915,0.446686 0.12278,0.446686 -0.13636,0 -0.0615,0.224673 0.16643,0.499274 0.22789,0.2746 0.30279,0.499273 0.16642,0.499273 -0.13636,0 -0.0615,0.224673 0.16643,0.499273 0.22789,0.274601 0.30278,0.499274 0.16642,0.499274 -0.13637,0 -0.0615,0.224673 0.16642,0.499273 0.2279,0.2746 0.30279,0.499273 0.16643,0.499273 -0.13637,0 -0.0811,0.201008 0.12278,0.446687 0.20389,0.245676 0.27216,0.54524 0.15171,0.665698 -0.12046,0.120454 -0.049,0.219011 0.15886,0.219011 0.20783,0 0.29166,0.224673 0.18629,0.499273 -0.1085,0.282749 -0.008,0.499274 0.23235,0.499274 0.23316,0 0.32537,0.09856 0.20492,0.219011 -0.12046,0.120458 -0.0522,0.420022 0.1517,0.665698 0.2039,0.245679 0.25915,0.446686 0.12278,0.446686 -0.13636,0 -0.0615,0.224673 0.16643,0.499274 0.2279,0.2746 0.30279,0.499273 0.16642,0.499273 -0.13636,0 -0.0615,0.224673 0.16643,0.499273 0.2279,0.274601 0.30279,0.499274 0.16642,0.499274 -0.13636,0 -0.0811,0.201007 0.12278,0.446686 0.2039,0.245676 0.27216,0.54524 0.15171,0.665698 -0.12046,0.120455 -0.049,0.219011 0.15886,0.219011 0.20784,0 0.29167,0.224673 0.18629,0.499274 -0.1085,0.282748 -0.008,0.499273 0.23235,0.499273 0.23316,0 0.32538,0.09856 0.20492,0.219011 -0.12045,0.120458 -0.0522,0.420022 0.15171,0.665698 0.20389,0.245679 0.25914,0.446687 0.12278,0.446687 -0.13637,0 -0.0615,0.224673 0.16642,0.499273 0.2279,0.2746 0.30279,0.499273 0.16643,0.499273 -0.13637,0 -0.0615,0.224673 0.16642,0.499274 0.2279,0.2746 0.30279,0.499273 0.16643,0.499273 -0.13637,0 -0.0811,0.201007 0.12278,0.446686 0.20389,0.245676 0.27216,0.54524 0.1517,0.665698 -0.12046,0.120455 -0.049,0.219012 0.15887,0.219012 0.20783,0 0.29166,0.224673 0.18629,0.499273 -0.10851,0.282748 -0.008,0.499273 0.23234,0.499273 0.23317,0 0.32538,0.09856 0.20492,0.219011 -0.12045,0.120458 -0.0522,0.420023 0.15171,0.665698 0.20389,0.245679 0.25915,0.446687 0.12278,0.446687 -0.13636,0 -0.0615,0.224673 0.16643,0.499273 0.22789,0.274601 0.30278,0.499274 0.16642,0.499274 -0.13637,0 -0.0615,0.224673 0.16642,0.499273 0.2279,0.2746 0.30279,0.499273 0.16643,0.499273 -0.13637,0 -0.0811,0.201008 0.12278,0.446687 0.20389,0.245676 0.27216,0.54524 0.15171,0.665698 -0.12046,0.120454 -0.049,0.219011 0.15886,0.219011 0.20783,0 0.29166,0.224673 0.18629,0.499273 -0.1085,0.282749 -0.008,0.499274 0.23235,0.499274 0.23316,0 0.32538,0.09856 0.20492,0.219011 -0.12046,0.120458 -0.0522,0.420022 0.1517,0.665698 0.2039,0.245679 0.25915,0.446686 0.12278,0.446686 -0.13636,0 -0.0615,0.224673 0.16643,0.499274 0.2279,0.2746 0.30279,0.499273 0.16642,0.499273 -0.13636,0 -0.0615,0.224673 0.16643,0.499273 0.2279,0.274601 0.30279,0.499274 0.16642,0.499274 -0.13636,0 -0.0811,0.201007 0.12278,0.446686 0.2039,0.245676 0.27216,0.54524 0.15171,0.665698 -0.12046,0.120455 -0.049,0.219011 0.15886,0.219011 0.20784,0 0.29167,0.224673 0.18629,0.499274 -0.1085,0.282748 -0.008,0.499273 0.23235,0.499273 0.23316,0 0.32538,0.09856 0.20492,0.219011 -0.12045,0.120458 -0.0522,0.420022 0.15171,0.665698 0.20389,0.245679 0.25914,0.446686 0.12278,0.446686 -0.13637,0 -0.0615,0.224673 0.16642,0.499274 0.2279,0.2746 0.30279,0.499273 0.16643,0.499273 -0.13637,0 -0.0615,0.224673 0.16642,0.499274 0.2279,0.2746 0.30279,0.499273 0.16643,0.499273 -0.13637,0 -0.0811,0.201007 0.12278,0.446686 0.20389,0.245676 0.27216,0.54524 0.1517,0.665698 -0.12046,0.120455 -0.049,0.219011 0.15887,0.219011 0.20783,0 0.29166,0.224674 0.18629,0.499274 -0.10538,0.2746 -0.0169,0.499273 0.19651,0.499273 0.21346,0 0.28123,0.172925 0.15061,0.384278 -0.14193,0.229639 -0.0918,0.294251 0.12448,0.160563 0.24666,-0.152449 0.10139,-0.937579 -0.45603,-2.464583 -0.4499,-1.23248 -6.77837,-19.138403 -14.06325,-39.790945 -7.28489,-20.652544 -13.37837,-37.551404 -13.54107,-37.553024 -0.34216,-0.0034 -28.428468,79.304385 -28.218038,79.679772 0.07697,0.1373 0.214827,0.249637 0.306361,0.249637 0.09153,0 0.08176,-0.136991 -0.0217,-0.30442 z M 128.71961,11.635309 c 0.27742,-0.722935 -0.42685,-1.402796 -0.93096,-0.898692 -0.42606,0.426058 -0.16211,1.420339 0.37705,1.420339 0.19455,0 0.44382,-0.234741 0.55391,-0.521647 z"
     id="path940"
     transform="scale(0.2)" />
  <path
     style="fill:#000000;stroke:#000000;stroke-width:0.459174;stroke-miterlimit:4;stroke-dasharray:none;stroke-opacity:1"
     d="m 48.61481,238.9641 c 0,-0.0906 3.432095,-11.80406 7.626877,-26.0299 15.429979,-52.32794 18.04515,-61.39432 18.117754,-62.81137 0.04841,-0.94494 -1.915971,-2.54451 -36.584088,-29.78998 L 1.1401072,91.541419 48.579365,91.374994 96.018622,91.20857 103.75755,69.240543 C 124.03869,11.66974 127.62716,1.7351146 127.91066,2.3730421 c 0.15413,0.346813 7.28542,20.4766849 15.8473,44.7330489 l 15.56706,44.102479 47.43076,0.166424 47.43075,0.166425 -27.94801,21.968031 c -39.35715,30.93598 -45.8002,36.09549 -45.63996,36.54789 0.13209,0.3729 22.49445,76.68889 24.77649,84.55466 0.57554,1.98379 1,3.74619 0.94325,3.91644 -0.0567,0.17026 -17.70175,-11.39762 -39.2111,-25.70639 -21.50936,-14.30877 -39.25861,-26.0192 -39.44278,-26.02316 -0.18416,-0.004 -9.8451,6.33525 -21.46875,14.08714 -32.488922,21.6671 -57.58086,38.26033 -57.58086,38.07807 z m 149.06375,-13.73129 c -0.78157,-2.59976 -1.16509,-3.00985 -0.6434,-0.688 0.17913,0.79723 0.27313,1.50206 0.2089,1.56629 -0.32155,0.32156 -1.94906,-0.72698 -31.13359,-20.05811 -8.51261,-5.63855 -15.6647,-10.40013 -15.89353,-10.58128 -0.22884,-0.18116 -0.41606,-0.23566 -0.41606,-0.12114 0,0.24242 48.35288,32.51363 48.49827,32.36824 0.0536,-0.0536 -0.22565,-1.17232 -0.62059,-2.486 z M 59.617088,226.1664 c 1.088356,-0.73909 1.97883,-1.43145 1.97883,-1.53858 0,-0.10713 -0.187228,-0.0426 -0.416062,0.14336 -0.727065,0.59089 -2.985538,1.77831 -3.122272,1.64157 -0.07234,-0.0723 0.48296,-2.41282 1.233994,-5.20108 0.751034,-2.78826 1.301502,-5.13358 1.22326,-5.21182 -0.127558,-0.12756 -1.046164,2.81847 -2.898272,9.29496 -0.356365,1.24614 -0.49021,2.21539 -0.305928,2.21539 0.180191,0 1.218094,-0.60471 2.30645,-1.3438 z m 135.784092,-8.8081 c -0.78656,-2.6612 -1.48546,-4.78319 -1.55311,-4.71554 -0.0677,0.0676 0.50905,2.31184 1.28157,4.98708 0.77252,2.67524 1.47142,4.79723 1.55311,4.71554 0.0817,-0.0817 -0.49502,-2.32587 -1.28157,-4.98708 z m -2.52015,-8.63029 c -0.12242,-0.4878 -0.28679,-0.82271 -0.36524,-0.74425 -0.0785,0.0785 -0.0425,0.54175 0.0799,1.02955 0.12242,0.48779 0.28678,0.8227 0.36524,0.74425 0.0785,-0.0785 0.0425,-0.54176 -0.0799,-1.02955 z m -43.59607,-13.79536 c -0.6261,-0.5766 -13.46374,-9.03292 -13.46374,-8.86875 0,0.17627 13.36663,9.15995 13.62889,9.15995 0.0831,0 0.009,-0.13104 -0.16515,-0.2912 z m -21.07615,-10.78284 c -0.44423,-0.44422 -1.05286,0.006 -0.82183,0.60846 0.14974,0.39021 0.2928,0.41242 0.66527,0.1033 0.30152,-0.25024 0.35859,-0.50973 0.15656,-0.71176 z M 60.763795,131.98256 c -0.113142,-0.18307 -0.384101,-0.33056 -0.60213,-0.32775 -0.23819,0.003 -0.197136,0.13388 0.102857,0.32775 0.639443,0.41324 0.754668,0.41324 0.499273,0 z m 134.479765,-0.26857 c -0.10248,-0.10248 -0.37106,-2.1e-4 -0.59684,0.22727 -0.32628,0.32873 -0.28805,0.36696 0.18633,0.18633 0.32826,-0.125 0.51299,-0.31111 0.41051,-0.4136 z M 59.598824,131.21016 c 0,-0.0587 -0.973583,-0.88687 -2.163518,-1.84043 -1.189935,-0.95355 -2.156085,-1.617 -2.147002,-1.47433 0.0091,0.14267 0.945221,0.96737 2.080306,1.83267 2.059283,1.56984 2.230214,1.68343 2.230214,1.48209 z m 137.277106,-0.85943 c -0.0876,-0.0876 -0.41776,0.11073 -0.73377,0.44066 -0.54896,0.57314 -0.54187,0.58024 0.15921,0.15921 0.40358,-0.24236 0.66213,-0.51231 0.57456,-0.59987 z m 3.02751,-2.29807 c -0.10248,-0.10248 -0.37105,-2.2e-4 -0.59684,0.22726 -0.32628,0.32873 -0.28805,0.36696 0.18633,0.18633 0.32826,-0.125 0.51299,-0.31111 0.41051,-0.41359 z M 53.773968,126.4981 c -0.732267,-0.63114 -1.468695,-1.15315 -1.636508,-1.16002 -0.383595,-0.0157 -0.250455,0.11527 1.342589,1.32083 1.758028,1.33042 1.920782,1.24137 0.293919,-0.16081 z m 149.229412,-0.78832 c 0.97754,-0.76051 1.67635,-1.38274 1.55292,-1.38274 -0.27853,0 -4.16239,3.03432 -4.16239,3.25192 0,0.0869 0.18723,0.013 0.41606,-0.16418 0.22883,-0.17724 1.21587,-0.94449 2.19341,-1.705 z M 51.277602,124.49346 c -0.227899,-0.2746 -0.583248,-0.49451 -0.789664,-0.48869 -0.20642,0.006 -0.08456,0.2305 0.270795,0.49927 0.830016,0.6278 1.045033,0.62341 0.518869,-0.0106 z M 206.1957,123.02805 c -0.0876,-0.0876 -0.41776,0.11073 -0.73377,0.44066 -0.54896,0.57315 -0.54187,0.58024 0.15921,0.15921 0.40358,-0.24236 0.66213,-0.5123 0.57456,-0.59987 z m -156.249494,0.52027 c 0,-0.21945 -4.058823,-3.26178 -4.184257,-3.13635 -0.117329,0.11733 3.802825,3.24937 4.067008,3.24937 0.06449,0 0.117249,-0.0509 0.117249,-0.11302 z m 157.479984,-1.46801 c 0.41403,-0.52792 0.40225,-0.5397 -0.12567,-0.12567 -0.32036,0.25125 -0.58248,0.51336 -0.58248,0.58248 0,0.27395 0.27333,0.0976 0.70815,-0.45681 z m 1.79702,-1.35033 c -0.10248,-0.10248 -0.37105,-2.1e-4 -0.59684,0.22726 -0.32628,0.32873 -0.28805,0.36696 0.18633,0.18633 0.32826,-0.12499 0.51299,-0.31111 0.41051,-0.41359 z m 1.63238,-1.36326 c -0.0876,-0.0876 -0.41777,0.11072 -0.73378,0.44065 -0.54896,0.57315 -0.54187,0.58024 0.15922,0.15922 0.40357,-0.24237 0.66212,-0.51231 0.57456,-0.59987 z m -165.569269,0.52026 c 0,-0.21217 -4.056646,-3.26396 -4.177733,-3.14287 -0.107307,0.1073 3.838554,3.25589 4.080342,3.25589 0.05356,0 0.09739,-0.0509 0.09739,-0.11302 z m 166.799759,-1.46801 c 0.41402,-0.52792 0.40225,-0.53969 -0.12567,-0.12567 -0.32037,0.25125 -0.58249,0.51337 -0.58249,0.58248 0,0.27395 0.27334,0.0976 0.70816,-0.45681 z m 1.79702,-1.35033 c -0.10248,-0.10248 -0.37106,-2.1e-4 -0.59684,0.22727 -0.32628,0.32872 -0.28805,0.36695 0.18632,0.18632 0.32827,-0.12499 0.513,-0.31111 0.41052,-0.41359 z m 1.63237,-1.36326 c -0.0876,-0.0876 -0.41776,0.11073 -0.73377,0.44066 -0.54897,0.57314 -0.54187,0.58023 0.15921,0.15921 0.40358,-0.24237 0.66213,-0.51231 0.57456,-0.59987 z m -174.889033,0.52027 c 0,-0.21218 -4.056646,-3.26397 -4.177733,-3.14288 -0.107307,0.1073 3.838553,3.25589 4.080341,3.25589 0.05357,0 0.09739,-0.0509 0.09739,-0.11301 z m 176.119523,-1.46802 c 0.41402,-0.52792 0.40225,-0.53969 -0.12567,-0.12567 -0.32036,0.25125 -0.58248,0.51337 -0.58248,0.58248 0,0.27395 0.27333,0.0976 0.70815,-0.45681 z m 1.79702,-1.35032 c -0.10248,-0.10249 -0.37105,-2.2e-4 -0.59684,0.22726 -0.32628,0.32873 -0.28805,0.36696 0.18633,0.18633 0.32826,-0.125 0.51299,-0.31111 0.41051,-0.41359 z m 3.09994,-2.34289 c 0.97754,-0.7605 1.67635,-1.38274 1.55292,-1.38274 -0.27853,0 -4.16239,3.03432 -4.16239,3.25192 0,0.087 0.18723,0.0131 0.41606,-0.16417 0.22883,-0.17725 1.21587,-0.9445 2.19341,-1.70501 z m -186.015894,1.10559 c -0.231569,-0.27903 -0.507688,-0.42067 -0.6136,-0.31475 -0.105913,0.10591 0.02776,0.33191 0.297068,0.50222 0.704631,0.44562 0.7967,0.39109 0.316532,-0.18747 z m -2.156841,-1.64866 c -0.732267,-0.63114 -1.468695,-1.15314 -1.636507,-1.16002 -0.383595,-0.0157 -0.250456,0.11527 1.342589,1.32083 1.758027,1.33042 1.920781,1.24137 0.293918,-0.16081 z m -2.329942,-1.83821 c -0.113142,-0.18307 -0.3841,-0.33056 -0.602129,-0.32776 -0.238192,0.003 -0.197138,0.13389 0.102856,0.32776 0.639443,0.41324 0.75467,0.41324 0.499273,0 z m 193.726867,-0.26857 c -0.10248,-0.10248 -0.37106,-2.1e-4 -0.59684,0.22726 -0.32628,0.32873 -0.28805,0.36696 0.18633,0.18633 0.32826,-0.12499 0.51299,-0.31111 0.41051,-0.41359 z m 1.19862,-0.97962 c 0.41402,-0.52791 0.40225,-0.53969 -0.12567,-0.12567 -0.32036,0.25125 -0.58248,0.51337 -0.58248,0.58249 0,0.27395 0.27333,0.0976 0.70815,-0.45682 z M 28.631303,106.69957 c -0.633819,-0.54176 -1.28533,-0.99111 -1.447803,-0.99855 -0.162472,-0.007 0.270024,0.43582 0.961103,0.98502 1.621659,1.28873 1.99059,1.29899 0.4867,0.0135 z m 199.231447,-0.61494 c -0.10248,-0.10248 -0.37106,-2.1e-4 -0.59684,0.22726 -0.32628,0.32873 -0.28805,0.36696 0.18633,0.18633 0.32826,-0.12499 0.51299,-0.31111 0.41051,-0.41359 z M 26.480358,105.0218 c -0.113141,-0.18307 -0.384099,-0.33056 -0.602129,-0.32775 -0.238192,0.003 -0.197138,0.13388 0.102856,0.32775 0.639444,0.41324 0.75467,0.41324 0.499273,0 z M 229.527,104.75323 c -0.10249,-0.10248 -0.37106,-2.1e-4 -0.59685,0.22727 -0.32627,0.32872 -0.28804,0.36696 0.18633,0.18633 0.32827,-0.125 0.513,-0.31112 0.41052,-0.4136 z m 1.19862,-0.97961 c 0.41402,-0.52792 0.40225,-0.5397 -0.12567,-0.12567 -0.32037,0.25125 -0.58249,0.51337 -0.58249,0.58248 0,0.27395 0.27333,0.0976 0.70816,-0.45681 z M 24.816114,103.6904 c -0.113142,-0.18306 -0.3841,-0.33055 -0.602129,-0.32775 -0.238192,0.003 -0.197138,0.13388 0.102856,0.32775 0.639443,0.41325 0.75467,0.41325 0.499273,0 z m 207.706526,-1.26711 c -0.10249,-0.10248 -0.37106,-2.1e-4 -0.59685,0.22726 -0.32627,0.32873 -0.28804,0.36696 0.18633,0.18633 0.32827,-0.12499 0.513,-0.31111 0.41052,-0.41359 z M 21.820474,101.36046 c -0.113142,-0.18307 -0.3841,-0.33055 -0.60213,-0.32775 -0.238192,0.003 -0.197138,0.13388 0.102856,0.32775 0.639444,0.41324 0.75467,0.41324 0.499274,0 z M 237.18252,98.761953 c -0.10248,-0.10248 -0.37106,-2.13e-4 -0.59684,0.227263 -0.32628,0.328728 -0.28805,0.366959 0.18633,0.186329 0.32826,-0.124995 0.51299,-0.311111 0.41051,-0.413592 z M 114.15755,54.761615 c -0.0121,-0.329207 -0.11574,-0.272516 -0.30435,0.166425 -0.39321,0.915031 -0.39321,1.44056 0,0.832122 0.17746,-0.2746 0.31442,-0.723946 0.30435,-0.998547 z m 13.86437,-37.362289 c -0.0768,-0.4119 -0.15073,-0.795195 -0.16434,-0.851766 -0.0136,-0.05657 -0.17492,-0.01004 -0.35848,0.103412 -0.22195,0.137169 -0.21802,0.422509 0.0117,0.851766 0.46096,0.861326 0.68258,0.816486 0.51111,-0.103412 z m 0.51973,-6.330948 c -0.44422,-0.444221 -1.05285,0.0064 -0.82182,0.608459 0.14974,0.390214 0.2928,0.412428 0.66527,0.103302 0.30152,-0.250239 0.35859,-0.509722 0.15655,-0.711761 z"
     id="path942"
     transform="scale(0.2)" />
  <path
     style="fill:#000000;stroke:#000000;stroke-width:0.459174;stroke-miterlimit:4;stroke-dasharray:none;stroke-opacity:1"
     d="m 48.762219,238.2701 c 0.127811,-0.51748 4.855277,-16.66797 10.505477,-35.89 11.513413,-39.16873 14.981007,-51.22477 14.966724,-52.03598 -0.02235,-1.26945 -0.442399,-1.611 -45.709519,-37.16752 L 0.98109024,91.541419 48.288053,91.334097 c 26.3683,-0.115555 47.432696,-0.33654 47.591038,-0.499273 0.156243,-0.160573 5.675979,-15.569716 12.266079,-34.24254 17.56836,-49.7793303 19.42287,-54.8821511 19.7399,-54.3156517 0.28194,0.5037937 6.47138,17.9356707 22.29923,62.8032987 4.94038,14.004618 9.11098,25.59432 9.26802,25.754893 0.15913,0.16272 21.22573,0.383725 47.59167,0.499273 l 47.30616,0.207322 -17.57514,13.800491 c -45.5326,35.75345 -56.01919,44.11426 -56.01919,44.66328 0,0.15781 5.68381,19.67703 12.63067,43.37605 6.94687,23.69902 12.73421,43.64104 12.86075,44.31559 0.18703,0.99693 0.1436,1.17399 -0.23204,0.94609 -1.1265,-0.68345 -22.05811,-14.52531 -48.95395,-32.37276 -16.05262,-10.65214 -29.28793,-19.36753 -29.41181,-19.36753 -0.12388,0 -16.2723,10.66125 -35.885383,23.69167 -46.868876,31.13847 -43.287842,28.83372 -43.001838,27.6758 z M 197.76459,225.82519 c -0.23164,-0.57986 -0.33014,-0.64516 -0.34522,-0.22888 -0.0263,0.72592 -0.6403,0.74445 -1.63281,0.0493 -0.41871,-0.29328 -0.83087,-0.46364 -0.91593,-0.37858 -0.085,0.085 0.56121,0.6218 1.43613,1.19277 1.67679,1.09426 2.07861,0.91935 1.45783,-0.63458 z m -139.348308,1.04774 c 0.103479,-0.16743 0.02473,-0.3589 -0.175015,-0.42548 -0.250489,-0.0835 -0.193715,-0.77496 0.183003,-2.22876 0.30039,-1.15925 0.483763,-2.17012 0.407491,-2.24639 -0.07627,-0.0763 -0.394333,0.80155 -0.706812,1.9507 -0.312475,1.14916 -0.643014,2.35149 -0.734531,2.67186 -0.175255,0.61349 0.675963,0.84422 1.025864,0.27807 z M 128.1657,184.40626 c 0,-0.2746 -0.12482,-0.49927 -0.27738,-0.49927 -0.15255,0 -0.27737,0.22467 -0.27737,0.49927 0,0.2746 0.12482,0.49928 0.27737,0.49928 0.15256,0 0.27738,-0.22468 0.27738,-0.49928 z m 0.33285,-173.081426 c 0,-0.274601 -0.12482,-0.499274 -0.27738,-0.499274 -0.15255,0 -0.27737,0.224673 -0.27737,0.499274 0,0.2746 0.12482,0.499273 0.27737,0.499273 0.15256,0 0.27738,-0.224673 0.27738,-0.499273 z"
     id="path944"
     transform="scale(0.2)" />
  <path
     style="fill:#000000;stroke:#000000;stroke-width:0.459174;stroke-miterlimit:4;stroke-dasharray:none;stroke-opacity:1"
     d=""
     id="path946"
     transform="scale(0.2)" />
  <path
     style="fill:#000000;stroke:#000000;stroke-width:0.459174;stroke-miterlimit:4;stroke-dasharray:none;stroke-opacity:1"
     d="m 48.61481,238.7926 c 0,-0.21046 4.50755,-15.7538 10.016775,-34.54075 9.47314,-32.30424 14.955877,-51.28298 15.431504,-53.41685 0.179879,-0.80702 0.01598,-1.13873 -1.075781,-2.1773 -2.048179,-1.94839 -12.507403,-10.27573 -43.332297,-34.49997 L 0.87616857,91.541419 29.655011,91.337892 C 45.483375,91.225951 66.85079,91.093095 77.138154,91.042648 l 18.704301,-0.09172 1.380511,-3.865368 C 97.982244,84.959611 103.21945,70.189162 108.8612,54.262342 126.21341,5.2765544 127.5113,1.7078937 127.84245,2.0720505 c 0.26777,0.2944541 0.0692,-0.2611397 14.96754,41.8719755 5.82597,16.476021 11.82218,33.401387 13.32494,37.611926 1.50275,4.210538 2.87169,8.046898 3.04208,8.525245 l 0.30981,0.869725 18.70608,0.09172 c 10.28835,0.05045 31.65671,0.183309 47.48523,0.29525 l 28.77914,0.203527 -19.45937,15.297681 c -42.96238,33.77422 -52.45697,41.32741 -53.62418,42.65941 -0.51369,0.58621 -0.22643,1.72127 4.70681,18.59816 17.20329,58.85341 20.30466,69.56504 20.30466,70.12896 0,0.54464 -0.0961,0.57349 -0.74891,0.22474 -0.4119,-0.22005 -18.04629,-11.8584 -39.18752,-25.86297 -21.14124,-14.00458 -38.59666,-25.46287 -38.78983,-25.46287 -0.19317,0 -14.42491,9.33818 -31.626082,20.75151 -28.078594,18.63073 -43.885389,29.07367 -46.502703,30.72256 -0.57715,0.3636 -0.915335,0.43528 -0.915335,0.194 z m 149.31834,-12.14175 c -0.11112,-0.28957 -0.20203,-0.57511 -0.20203,-0.63454 0,-0.0594 -0.32171,-0.0239 -0.71491,0.0789 -0.68396,0.17886 -0.68841,0.20633 -0.10281,0.63453 0.82055,0.60001 1.26702,0.56546 1.01975,-0.0789 z M 58.031023,226.1788 c -0.09575,-0.36613 -0.231507,-0.6657 -0.301688,-0.6657 -0.07018,0 -0.127604,0.29957 -0.127604,0.6657 0,0.36613 0.135759,0.6657 0.301687,0.6657 0.165929,0 0.223352,-0.29957 0.127605,-0.6657 z"
     id="path948"
     transform="scale(0.2)" />
</svg>
