<?xml version="1.0" encoding="UTF-8" standalone="no"?>
<svg
   xmlns:dc="http://purl.org/dc/elements/1.1/"
   xmlns:cc="http://creativecommons.org/ns#"
   xmlns:rdf="http://www.w3.org/1999/02/22-rdf-syntax-ns#"
   xmlns:svg="http://www.w3.org/2000/svg"
   xmlns="http://www.w3.org/2000/svg"
   xmlns:sodipodi="http://sodipodi.sourceforge.net/DTD/sodipodi-0.dtd"
   xmlns:inkscape="http://www.inkscape.org/namespaces/inkscape"
   width="255"
   height="240"
   viewBox="0 0 51 48"
   version="1.1"
   id="svg849"
   sodipodi:docname="half-Five-pointed_star.svg"
   inkscape:version="1.0.2-2 (e86c870879, 2021-01-15)">
  <metadata
     id="metadata855">
    <rdf:RDF>
      <cc:Work
         rdf:about="">
        <dc:format>image/svg+xml</dc:format>
        <dc:type
           rdf:resource="http://purl.org/dc/dcmitype/StillImage" />
        <dc:title>Five Pointed Star</dc:title>
      </cc:Work>
    </rdf:RDF>
  </metadata>
  <defs
     id="defs853" />
  <sodipodi:namedview
     pagecolor="#ffffff"
     bordercolor="#666666"
     borderopacity="1"
     objecttolerance="10"
     gridtolerance="10"
     guidetolerance="10"
     inkscape:pageopacity="0"
     inkscape:pageshadow="2"
     inkscape:window-width="1920"
     inkscape:window-height="1017"
     id="namedview851"
     showgrid="false"
     inkscape:zoom="3.0043662"
     inkscape:cx="127.5"
     inkscape:cy="120"
     inkscape:window-x="-8"
     inkscape:window-y="-8"
     inkscape:window-maximized="1"
     inkscape:current-layer="svg849" />
  <title
     id="title845">Five Pointed Star</title>
  <path
     fill="none"
     stroke="#000000"
     d="m 25.532558,1.7322676 6,17.0000004 h 18 l -14,11 5,17 -15,-10 -15,10 5,-17 -13.9999998,-11 H 19.532558 Z"
     id="path847" />
  <circle
     id="path884"
     style="fill:#000000;stroke:#ffffff;stroke-width:0.2"
     cx="25.629368"
     cy="2.2633727"
     r="0.020108057" />
  <circle
     id="path886"
     style="fill:#000000;stroke:#ffffff;stroke-width:0.2"
     cx="25.562796"
     cy="36.879658"
     r="0.020108057" />
  <path
     style="fill:none;stroke:#000000;stroke-width:0.27590551;stroke-linecap:butt;stroke-linejoin:miter;stroke-opacity:1;stroke-miterlimit:4;stroke-dasharray:none"
     d="M 25.532558,1.7322676 V 36.732268 Z"
     id="path914" />
  <path
     style="fill:#000000;stroke:#000000;stroke-width:0.459174;stroke-miterlimit:4;stroke-dasharray:none;stroke-opacity:1"
     d="m 68.959111,187.82927 c 6.375398,-21.65388 11.594033,-39.59536 11.596968,-39.86996 0.003,-0.2746 -14.584417,-11.9576 -32.416337,-25.96222 L 15.718069,96.534152 57.668091,96.367728 99.61811,96.201304 112.87565,58.642487 c 7.29166,-20.657351 13.40347,-37.957173 13.58182,-38.444049 0.21208,-0.57894 0.32943,27.100108 0.33916,79.997052 l 0.0149,80.88228 -34.468372,22.96658 c -18.957609,12.63161 -34.582519,23.0091 -34.722022,23.06109 -0.139504,0.052 4.962594,-17.62229 11.337988,-39.27617 z"
     id="path932"
     transform="scale(0.2)" />
  <path
     style="fill:#000000;stroke:#000000;stroke-width:0.459174;stroke-miterlimit:4;stroke-dasharray:none;stroke-opacity:1"
     d="m 48.705948,238.73681 c 0.103163,-0.26885 6.060436,-20.45733 13.238379,-44.8633 C 74.657318,150.64764 74.978447,149.48555 74.350461,148.9788 73.99589,148.69268 57.405207,135.65222 37.482273,120 L 1.2587587,91.541419 48.652269,91.453507 96.045779,91.365591 111.83261,46.593477 C 126.18097,5.9008864 127.65359,1.90555 127.99435,2.7453343 c 0.20621,0.5081861 7.33143,20.6567557 15.83382,44.7746007 l 15.4589,43.850626 47.3938,0.08543 47.3938,0.08543 -36.84376,28.947049 c -34.46954,27.08169 -36.8304,29.00136 -36.6365,29.78997 0.114,0.46361 5.97083,20.44255 13.01519,44.39764 7.04435,23.95509 12.76318,43.68893 12.7085,43.85297 -0.0547,0.16404 -17.73594,-11.45969 -39.29168,-25.83051 -21.55575,-14.37082 -39.26793,-26.12876 -39.36041,-26.12876 -0.0925,0 -17.93852,11.84756 -39.657886,26.32792 -21.719363,14.48035 -39.405343,26.10795 -39.302176,25.83911 z M 92.219215,204.54282 127.16715,181.2426 127.1437,99.279357 c -0.0195,-68.234216 -0.097,-81.768108 -0.46238,-80.798272 -0.24141,0.640734 -6.31315,17.790774 -13.49275,38.111199 -7.1796,20.320426 -13.254357,37.504027 -13.49946,38.185778 -0.318963,0.887185 -0.34147,1.303929 -0.07918,1.466033 0.210247,0.12994 0.272713,0.07479 0.14654,-0.129359 -0.120961,-0.195718 -0.07354,-0.406085 0.10537,-0.467489 0.17891,-0.0614 0.39339,-0.486096 0.47661,-0.943764 0.0832,-0.457667 0.18117,-0.869567 0.21766,-0.915334 0.0365,-0.04577 0.10379,-0.232994 0.14955,-0.416061 0.0458,-0.183067 0.12066,-0.40774 0.16643,-0.499273 0.0458,-0.09153 0.12066,-0.316207 0.16642,-0.499274 0.0458,-0.183067 0.12066,-0.40774 0.16643,-0.499273 0.0458,-0.09153 0.12065,-0.316207 0.16642,-0.499274 l 0.12482,-0.499273 c 0.0229,-0.09153 0.0288,-0.262015 0.0132,-0.378848 -0.0156,-0.11683 0.13036,-0.310562 0.32444,-0.430511 0.19408,-0.119945 0.42042,-0.586037 0.50297,-1.035759 0.0826,-0.449719 0.17995,-0.855119 0.21644,-0.900885 0.0365,-0.04577 0.10378,-0.232995 0.14955,-0.416061 0.0458,-0.183067 0.12066,-0.40774 0.16642,-0.499274 0.0458,-0.09153 0.12066,-0.316206 0.16643,-0.499273 0.0458,-0.183067 0.12066,-0.40774 0.16642,-0.499273 0.0458,-0.09153 0.12066,-0.316207 0.16643,-0.499274 l 0.12482,-0.499273 c 0.0229,-0.09153 0.0288,-0.262016 0.0132,-0.378849 -0.0157,-0.11683 0.13036,-0.310561 0.32444,-0.43051 0.19408,-0.119945 0.42042,-0.586037 0.50297,-1.035759 0.0825,-0.449719 0.17995,-0.855119 0.21643,-0.900886 0.0365,-0.04577 0.10379,-0.232994 0.14956,-0.416061 0.0458,-0.183067 0.12065,-0.40774 0.16642,-0.499273 0.0458,-0.09153 0.12066,-0.316207 0.16643,-0.499273 0.0458,-0.183067 0.12065,-0.40774 0.16642,-0.499274 0.0458,-0.09153 0.12066,-0.316206 0.16642,-0.499273 l 0.12482,-0.499274 c 0.0229,-0.09153 0.0288,-0.262015 0.0132,-0.378848 -0.0156,-0.11683 0.13037,-0.310561 0.32445,-0.43051 0.19408,-0.119946 0.42041,-0.586037 0.50297,-1.035759 0.0826,-0.449719 0.16122,-0.855119 0.17483,-0.900886 0.0136,-0.04577 0.0375,-0.195549 0.053,-0.332849 0.0156,-0.1373 0.18369,-0.436864 0.37361,-0.665698 0.18991,-0.228833 0.23373,-0.416061 0.0974,-0.416061 -0.13636,0 -0.0615,-0.224673 0.16643,-0.499273 0.2279,-0.2746 0.30279,-0.499273 0.16642,-0.499273 -0.13636,0 -0.0615,-0.224674 0.16643,-0.499274 0.22789,-0.2746 0.28368,-0.501567 0.12396,-0.504369 -0.15971,-0.0027 -0.10694,-0.121643 0.11727,-0.264086 0.22421,-0.142446 0.4752,-0.626941 0.55775,-1.076663 0.0826,-0.449719 0.16123,-0.855119 0.17483,-0.900885 0.0136,-0.04577 -0.0127,-0.135084 -0.0585,-0.198481 -0.0458,-0.06339 0.12236,-0.362959 0.3736,-0.665698 0.25124,-0.302736 0.34524,-0.550429 0.20888,-0.550429 -0.13637,0 -0.0615,-0.224673 0.16642,-0.499273 0.2279,-0.274601 0.30279,-0.499274 0.16642,-0.499274 -0.13636,0 -0.0615,-0.224673 0.16643,-0.499273 0.2279,-0.274601 0.28368,-0.501567 0.12397,-0.504369 -0.15972,-0.0027 -0.10695,-0.121643 0.11726,-0.264086 0.22421,-0.142446 0.4752,-0.626941 0.55775,-1.076663 0.0826,-0.449719 0.16123,-0.855119 0.17483,-0.900886 0.0136,-0.04577 0.0375,-0.195548 0.053,-0.332849 0.0156,-0.1373 0.18369,-0.436864 0.3736,-0.665697 0.18992,-0.228834 0.23373,-0.416061 0.0974,-0.416061 -0.13637,0 -0.0615,-0.224673 0.16642,-0.499274 0.2279,-0.2746 0.30279,-0.499273 0.16643,-0.499273 -0.13637,0 -0.0615,-0.224673 0.16642,-0.499273 0.2279,-0.274601 0.28369,-0.501567 0.12397,-0.50437 -0.15972,-0.0027 -0.10695,-0.121643 0.11726,-0.264085 0.22422,-0.142446 0.4752,-0.626941 0.55776,-1.076663 0.0826,-0.449719 0.16122,-0.855119 0.17483,-0.900886 0.0136,-0.04577 -0.0127,-0.135083 -0.0585,-0.198481 -0.0458,-0.06339 0.12235,-0.362958 0.3736,-0.665698 0.25125,-0.302736 0.34525,-0.550429 0.20888,-0.550429 -0.13636,0 -0.0615,-0.224673 0.16643,-0.499273 0.2279,-0.2746 0.30279,-0.499273 0.16642,-0.499273 -0.13636,0 -0.0615,-0.224673 0.16643,-0.499274 0.22789,-0.2746 0.28368,-0.501566 0.12396,-0.504369 -0.15971,-0.0027 -0.10694,-0.121643 0.11727,-0.264086 0.22421,-0.142446 0.4752,-0.626941 0.55775,-1.076663 0.0826,-0.449719 0.17995,-0.855119 0.21643,-0.900885 0.0365,-0.04577 0.10379,-0.232994 0.14956,-0.416061 0.0458,-0.183067 0.12066,-0.40774 0.16642,-0.499274 0.0458,-0.09153 0.12066,-0.316206 0.16643,-0.499273 0.0458,-0.183067 0.12065,-0.40774 0.16642,-0.499273 0.0458,-0.09153 0.12066,-0.316207 0.16643,-0.499274 l 0.12481,-0.499273 c 0.0229,-0.09153 0.0288,-0.262015 0.0132,-0.378849 -0.0156,-0.11683 0.13037,-0.310561 0.32445,-0.43051 0.19408,-0.119945 0.42041,-0.586037 0.50297,-1.035759 0.0825,-0.449719 0.17994,-0.855119 0.21643,-0.900886 0.0365,-0.04577 0.10379,-0.232994 0.14955,-0.416061 0.0458,-0.183067 0.12066,-0.40774 0.16643,-0.499273 0.0458,-0.09153 0.12066,-0.316207 0.16642,-0.499273 l 0.12482,-0.499274 c 0.0229,-0.09153 0.004,-0.218295 -0.0416,-0.281693 -0.0458,-0.06339 0.12235,-0.362959 0.3736,-0.665698 0.25125,-0.302736 0.32614,-0.552722 0.16642,-0.555525 -0.15971,-0.0027 -0.10694,-0.121643 0.11727,-0.264085 0.22421,-0.142446 0.4752,-0.626941 0.55775,-1.076663 0.0825,-0.449719 0.16123,-0.855119 0.17483,-0.900886 0.0136,-0.04577 -0.0127,-0.135083 -0.0585,-0.198481 -0.0458,-0.06339 0.12236,-0.362958 0.3736,-0.665698 0.25125,-0.302736 0.34525,-0.550429 0.20888,-0.550429 -0.13636,0 -0.0615,-0.224673 0.16643,-0.499273 0.2279,-0.2746 0.30279,-0.499273 0.16642,-0.499273 -0.13636,0 -0.0615,-0.224673 0.16643,-0.499274 0.22789,-0.2746 0.28368,-0.501566 0.12396,-0.504369 -0.15971,-0.0027 -0.10694,-0.121643 0.11727,-0.264086 0.22421,-0.142446 0.4752,-0.626941 0.55775,-1.076663 0.0825,-0.449719 0.16123,-0.855119 0.17483,-0.900885 0.0136,-0.04577 0.0375,-0.195549 0.053,-0.332849 0.0156,-0.1373 0.18369,-0.436864 0.3736,-0.665698 0.18992,-0.228834 0.23373,-0.416061 0.0974,-0.416061 -0.13637,0 -0.0615,-0.224673 0.16642,-0.499273 0.2279,-0.274601 0.30279,-0.499274 0.16643,-0.499274 -0.13637,0 -0.0615,-0.224673 0.16642,-0.499273 0.2279,-0.2746 0.28368,-0.501567 0.12397,-0.50437 -0.15972,-0.0028 -0.10695,-0.121642 0.11726,-0.264086 0.22421,-0.142443 0.4752,-0.626942 0.55775,-1.076662 0.0826,-0.44972 0.17995,-0.855119 0.21644,-0.900886 0.0365,-0.04577 0.10378,-0.232994 0.14955,-0.416061 0.0458,-0.183067 0.12066,-0.40774 0.16643,-0.499273 0.0458,-0.09153 0.12065,-0.316206 0.16642,-0.499273 0.0458,-0.183067 0.12066,-0.40774 0.16642,-0.499274 0.0458,-0.09153 0.12066,-0.316206 0.16643,-0.499273 0.0458,-0.183067 0.11967,-0.445185 0.16423,-0.582486 0.0446,-0.1373 0.0633,-0.361973 0.0416,-0.499273 -0.0217,-0.1373 0.13533,-0.249637 0.34891,-0.249637 0.21357,0 0.28977,-0.09856 0.16931,-0.219011 -0.12046,-0.120457 -0.0522,-0.420021 0.1517,-0.665698 0.2039,-0.245678 0.25915,-0.446686 0.12279,-0.446686 -0.13637,0 -0.0615,-0.224673 0.16642,-0.499274 0.2279,-0.2746 0.30279,-0.499273 0.16642,-0.499273 -0.13636,0 -0.0615,-0.224673 0.16643,-0.499273 0.2279,-0.274601 0.30279,-0.499274 0.16642,-0.499274 -0.13636,0 -0.0615,-0.224673 0.16643,-0.499273 0.2279,-0.2746 0.30279,-0.499273 0.16642,-0.499273 -0.13636,0 -0.0811,-0.201009 0.12278,-0.446687 0.2039,-0.245677 0.27216,-0.545241 0.15171,-0.665697 -0.12046,-0.120457 -0.0443,-0.219012 0.16931,-0.219012 0.21358,0 0.37059,-0.112337 0.34891,-0.249637 -0.0217,-0.1373 0.004,-0.5492 0.0574,-0.915334 0.39599,-2.722701 0.47286,15.098422 0.35785,82.954858 -0.0749,44.16727 -0.25698,77.55177 -0.42248,77.44948 -0.16,-0.0989 -0.38043,0.0535 -0.48986,0.33867 -0.10942,0.28516 -0.33409,0.43494 -0.49927,0.33285 -0.16518,-0.10208 -0.38985,0.0477 -0.49927,0.33285 -0.10943,0.28515 -0.3341,0.43494 -0.49928,0.33285 -0.16517,-0.10209 -0.38985,0.0477 -0.49927,0.33285 -0.10942,0.28515 -0.3341,0.43493 -0.49927,0.33285 -0.16518,-0.10209 -0.38985,0.0477 -0.49928,0.33284 -0.10942,0.28516 -0.33409,0.43494 -0.49927,0.33285 -0.16518,-0.10208 -0.38985,0.0477 -0.49927,0.33285 -0.10943,0.28516 -0.3341,0.43494 -0.49928,0.33285 -0.16517,-0.10208 -0.38985,0.0477 -0.49927,0.33285 -0.10942,0.28516 -0.3341,0.43494 -0.49927,0.33285 -0.16518,-0.10209 -0.38985,0.0477 -0.49928,0.33285 -0.10942,0.28515 -0.33409,0.43494 -0.49927,0.33285 -0.16518,-0.10209 -0.38985,0.0477 -0.49928,0.33285 -0.10942,0.28515 -0.33409,0.43493 -0.49927,0.33284 -0.16517,-0.10208 -0.38985,0.0477 -0.49927,0.33285 -0.10942,0.28516 -0.3341,0.43494 -0.49928,0.33285 -0.16517,-0.10208 -0.38984,0.0477 -0.49927,0.33285 -0.10942,0.28516 -0.33409,0.43494 -0.49927,0.33285 -0.16518,-0.10208 -0.38985,0.0477 -0.49928,0.33285 -0.10942,0.28515 -0.33409,0.43494 -0.49927,0.33285 -0.16517,-0.10209 -0.38985,0.0477 -0.49927,0.33285 -0.10942,0.28515 -0.3341,0.43493 -0.49928,0.33285 -0.16517,-0.10209 -0.38984,0.0477 -0.49927,0.33285 -0.10942,0.28515 -0.33409,0.43493 -0.49927,0.33284 -0.16518,-0.10208 -0.38985,0.0477 -0.49928,0.33285 -0.10942,0.28516 -0.33409,0.43494 -0.49927,0.33285 -0.16517,-0.10208 -0.38985,0.0477 -0.49927,0.33285 -0.10942,0.28516 -0.3341,0.43494 -0.49928,0.33285 -0.16517,-0.10209 -0.38984,0.0477 -0.49927,0.33285 -0.10942,0.28515 -0.33409,0.43494 -0.49927,0.33285 -0.16518,-0.10209 -0.38985,0.0477 -0.49928,0.33285 -0.10942,0.28515 -0.33409,0.43493 -0.49927,0.33285 -0.16517,-0.10209 -0.38985,0.0477 -0.49927,0.33284 -0.10942,0.28516 -0.3341,0.43494 -0.49928,0.33285 -0.16517,-0.10208 -0.38984,0.0477 -0.49927,0.33285 -0.10942,0.28516 -0.33409,0.43494 -0.49927,0.33285 -0.16518,-0.10208 -0.38985,0.0477 -0.49928,0.33285 -0.10942,0.28515 -0.33409,0.43494 -0.49927,0.33285 -0.16518,-0.10209 -0.38985,0.0477 -0.49927,0.33285 -0.10942,0.28515 -0.3341,0.43493 -0.49928,0.33285 -0.16517,-0.10209 -0.38984,0.0477 -0.49927,0.33285 -0.10942,0.28515 -0.33409,0.43493 -0.49927,0.33284 -0.16518,-0.10208 -0.38985,0.0477 -0.49928,0.33285 -0.10942,0.28516 -0.33409,0.43494 -0.49927,0.33285 -0.16518,-0.10208 -0.38985,0.0477 -0.49927,0.33285 -0.10942,0.28516 -0.3341,0.43494 -0.49928,0.33285 -0.16517,-0.10209 -0.38984,0.0477 -0.49927,0.33285 -0.10942,0.28515 -0.33409,0.43494 -0.49927,0.33285 -0.16518,-0.10209 -0.38985,0.0477 -0.49928,0.33285 -0.10942,0.28515 -0.33409,0.43493 -0.49927,0.33285 -0.16518,-0.10209 -0.38985,0.0477 -0.499274,0.33284 -0.109421,0.28516 -0.334094,0.43494 -0.499274,0.33285 -0.165176,-0.10208 -0.389849,0.0477 -0.499273,0.33285 -0.109421,0.28516 -0.334094,0.43494 -0.499273,0.33285 -0.165177,-0.10208 -0.38985,0.0477 -0.499274,0.33285 -0.109421,0.28515 -0.334094,0.43494 -0.499273,0.33285 -0.165176,-0.10209 -0.389849,0.0477 -0.499274,0.33285 -0.10942,0.28515 -0.334093,0.43493 -0.499273,0.33285 -0.165176,-0.10209 -0.389849,0.0477 -0.499273,0.33285 -0.109421,0.28515 -0.334094,0.43493 -0.499274,0.33284 -0.165176,-0.10208 -0.389849,0.0477 -0.499273,0.33285 -0.109421,0.28516 -0.334094,0.43494 -0.499273,0.33285 -0.165177,-0.10208 -0.38985,0.0477 -0.499274,0.33285 -0.10942,0.28516 -0.334093,0.43494 -0.499273,0.33285 -0.165176,-0.10208 -0.389849,0.0477 -0.499273,0.33285 -0.109421,0.28515 -0.334094,0.43494 -0.499274,0.33285 -0.165176,-0.10209 -0.389849,0.0477 -0.499273,0.33285 -0.109421,0.28515 -0.334094,0.43493 -0.499273,0.33285 -0.165177,-0.10209 -0.38985,0.0477 -0.499274,0.33284 -0.109421,0.28516 -0.334094,0.43494 -0.499273,0.33285 -0.165176,-0.10208 -0.389849,0.0477 -0.499273,0.33285 -0.109421,0.28516 -0.334094,0.43494 -0.499274,0.33285 -0.165176,-0.10208 -0.389849,0.0477 -0.499273,0.33285 -0.109421,0.28516 -0.334094,0.43494 -0.499274,0.33285 -0.165176,-0.10209 -0.389849,0.0477 -0.499273,0.33285 -0.109421,0.28515 -0.334094,0.43493 -0.499273,0.33285 -0.165176,-0.10209 -0.389849,0.0477 -0.499274,0.33285 -0.10942,0.28515 -0.334093,0.43493 -0.499273,0.33284 -0.165176,-0.10208 -0.389849,0.0477 -0.499273,0.33285 -0.109421,0.28516 -0.334094,0.43494 -0.499274,0.33285 -0.165176,-0.10208 -0.389849,0.0477 -0.499273,0.33285 -0.109421,0.28516 -0.334094,0.43494 -0.499273,0.33285 -0.165177,-0.10208 -0.38985,0.0477 -0.499274,0.33285 -0.10942,0.28515 -0.334093,0.43494 -0.499273,0.33285 -0.165176,-0.10209 -0.389849,0.0477 -0.499273,0.33285 -0.109421,0.28515 -0.323832,0.44127 -0.476464,0.34694 -0.152634,-0.0943 -0.431948,0.0938 -0.6207,0.41798 -0.188752,0.32422 -0.34774,0.47552 -0.353305,0.33623 -0.01188,-0.29772 -15.102344,9.71004 -15.265696,10.12399 -0.06102,0.15463 -0.323143,0.28115 -0.582485,0.28115 -0.259346,0 -0.471537,0.14979 -0.471537,0.33285 0,0.18307 -0.224673,0.33285 -0.499274,0.33285 -0.2746,0 -0.499273,0.14978 -0.499273,0.33285 0,0.18307 -0.224673,0.33285 -0.499274,0.33285 -0.2746,0 -0.499273,0.14978 -0.499273,0.33285 0,0.18307 -0.224673,0.33285 -0.499273,0.33285 -0.274601,0 -0.499274,0.14978 -0.499274,0.33285 0,0.18306 -0.224673,0.33285 -0.499273,0.33285 -0.2746,0 -0.499273,0.14978 -0.499273,0.33284 0,0.18307 -0.224673,0.33285 -0.499274,0.33285 -0.2746,0 -0.499273,0.15863 -0.499273,0.3525 0,0.19387 -0.15084,0.25926 -0.335199,0.14532 -0.184361,-0.11394 -0.415478,0.002 -0.513599,0.25773 -0.09812,0.25569 -0.391873,0.4649 -0.65279,0.4649 -0.492526,0 -0.510434,-0.73241 -0.03648,-1.49223 0.150334,-0.24101 0.184744,-0.52679 0.07647,-0.63507 -0.108276,-0.10828 -0.03006,-0.39788 0.173851,-0.64355 0.203893,-0.24568 0.259146,-0.44669 0.122781,-0.44669 -0.136365,0 -0.05847,-0.22829 0.173101,-0.50732 0.23157,-0.27902 0.326099,-0.60225 0.210068,-0.71828 -0.116035,-0.11603 -0.04415,-0.41198 0.159747,-0.65766 0.203894,-0.24568 0.259147,-0.44668 0.122782,-0.44668 -0.136365,0 -0.05847,-0.22829 0.173101,-0.50732 0.23157,-0.27903 0.326099,-0.60225 0.210068,-0.71829 -0.116035,-0.11603 -0.04415,-0.41197 0.159747,-0.65765 0.203893,-0.24568 0.259146,-0.44669 0.122781,-0.44669 -0.136364,0 -0.05847,-0.22829 0.173102,-0.50731 0.23157,-0.27903 0.326099,-0.60225 0.210067,-0.71829 -0.116034,-0.11603 -0.04415,-0.41198 0.159748,-0.65765 0.203893,-0.24568 0.259146,-0.44669 0.122781,-0.44669 -0.136365,0 -0.05847,-0.22829 0.173102,-0.50732 0.231569,-0.27902 0.326098,-0.60225 0.210067,-0.71828 -0.116034,-0.11603 -0.04415,-0.41198 0.159748,-0.65765 0.203893,-0.24568 0.259146,-0.44669 0.122781,-0.44669 -0.136365,0 -0.06692,-0.21811 0.154325,-0.48469 0.221242,-0.26658 0.31203,-0.63069 0.20175,-0.80913 -0.110279,-0.17843 -0.04584,-0.42002 0.143198,-0.53685 0.189039,-0.11683 0.26393,-0.34151 0.166425,-0.49927 -0.0975,-0.15777 -0.0226,-0.38244 0.166424,-0.49928 0.189039,-0.11683 0.253478,-0.35841 0.143199,-0.53685 -0.11028,-0.17843 -0.01951,-0.54254 0.201749,-0.80912 0.221245,-0.26658 0.290691,-0.48469 0.154326,-0.48469 -0.136365,0 -0.06147,-0.22468 0.166424,-0.49928 0.227898,-0.2746 0.302789,-0.49927 0.166425,-0.49927 -0.136365,0 -0.05847,-0.22829 0.173101,-0.50732 0.23157,-0.27902 0.326099,-0.60225 0.210068,-0.71828 -0.116035,-0.11604 -0.04415,-0.41198 0.159747,-0.65766 0.203893,-0.24568 0.259146,-0.44668 0.122781,-0.44668 -0.136364,0 -0.06692,-0.21812 0.154326,-0.4847 0.221241,-0.26658 0.312029,-0.63068 0.201749,-0.80912 -0.110279,-0.17844 -0.04584,-0.42002 0.143199,-0.53685 0.189038,-0.11684 0.263929,-0.34151 0.166424,-0.49928 -0.0975,-0.15776 -0.0226,-0.38244 0.166425,-0.49927 0.189038,-0.11683 0.253477,-0.35841 0.143198,-0.53685 -0.11028,-0.17844 -0.01951,-0.54254 0.20175,-0.80912 0.221244,-0.26659 0.29069,-0.4847 0.154325,-0.4847 -0.136365,0 -0.06147,-0.22467 0.166424,-0.49927 0.227899,-0.2746 0.30279,-0.49927 0.166425,-0.49927 -0.136365,0 -0.05847,-0.2283 0.173101,-0.50732 0.23157,-0.27903 0.326099,-0.60225 0.210068,-0.71829 -0.116035,-0.11603 -0.04415,-0.41197 0.159747,-0.65765 0.203894,-0.24568 0.259147,-0.44669 0.122782,-0.44669 -0.136365,0 -0.07456,-0.2089 0.137346,-0.46423 0.211905,-0.25534 0.36229,-0.59235 0.334191,-0.74891 -0.02809,-0.15657 -0.01465,-0.39701 0.02992,-0.53431 0.04456,-0.1373 0.118467,-0.39942 0.164234,-0.58249 0.04577,-0.18307 0.113395,-0.37029 0.150285,-0.41606 0.03689,-0.0458 0.135999,-0.38278 0.220243,-0.74891 0.250239,-1.08756 0.406478,-1.65906 0.477734,-1.74746 0.03689,-0.0458 0.08809,-0.19555 0.113775,-0.33285 0.0257,-0.1373 0.165585,-0.43686 0.310887,-0.66569 0.145302,-0.22884 0.178011,-0.5555 0.07269,-0.72591 -0.105327,-0.17042 -0.03683,-0.40544 0.152208,-0.52228 0.189038,-0.11683 0.263929,-0.3415 0.166425,-0.49927 -0.09751,-0.15777 -0.0226,-0.38244 0.166424,-0.49927 0.189038,-0.11684 0.253478,-0.35842 0.143198,-0.53686 -0.110279,-0.17843 -0.0195,-0.54254 0.20175,-0.80912 0.221245,-0.26658 0.29069,-0.48469 0.154325,-0.48469 -0.136364,0 -0.06147,-0.22468 0.166425,-0.49928 0.227898,-0.2746 0.302789,-0.49927 0.166424,-0.49927 -0.136364,0 -0.05847,-0.22829 0.173102,-0.50732 0.231569,-0.27902 0.326099,-0.60225 0.210067,-0.71828 -0.116034,-0.11603 -0.04415,-0.41198 0.159748,-0.65766 0.203896,-0.24567 0.259149,-0.44668 0.122785,-0.44668 -0.136365,0 -0.07456,-0.20891 0.137346,-0.46424 0.211905,-0.25533 0.36229,-0.59234 0.334191,-0.74891 -0.02809,-0.15657 -0.01465,-0.39701 0.02992,-0.53431 0.04456,-0.1373 0.118467,-0.39942 0.164234,-0.58248 0.04577,-0.18307 0.113395,-0.3703 0.150285,-0.41607 0.07126,-0.0884 0.227495,-0.6599 0.477734,-1.74745 0.08424,-0.36614 0.183353,-0.70315 0.220243,-0.74891 0.03689,-0.0458 0.08809,-0.19555 0.113774,-0.33285 0.0257,-0.1373 0.165586,-0.43687 0.310888,-0.6657 0.145302,-0.22883 0.178011,-0.55549 0.07269,-0.72591 -0.105327,-0.17042 -0.03683,-0.40544 0.152208,-0.52227 0.189038,-0.11684 0.263929,-0.34151 0.166424,-0.49928 -0.0975,-0.15776 -0.0226,-0.38244 0.166425,-0.49927 0.189038,-0.11683 0.253478,-0.35841 0.143198,-0.53685 -0.110279,-0.17844 -0.0195,-0.54254 0.20175,-0.80912 0.221245,-0.26659 0.29069,-0.4847 0.154325,-0.4847 -0.136365,0 -0.06147,-0.22467 0.166425,-0.49927 0.227898,-0.2746 0.302789,-0.49927 0.166424,-0.49927 -0.136365,0 -0.05847,-0.2283 0.173102,-0.50732 0.231569,-0.27903 0.326098,-0.60225 0.210067,-0.71829 -0.116034,-0.11603 -0.04415,-0.41197 0.159748,-0.65765 0.203896,-0.24568 0.259149,-0.44669 0.122784,-0.44669 -0.136365,0 -0.07456,-0.2089 0.137347,-0.46423 0.211905,-0.25534 0.362289,-0.59235 0.33419,-0.74891 -0.02809,-0.15657 -0.01465,-0.39701 0.02992,-0.53431 0.04456,-0.1373 0.118468,-0.39942 0.164235,-0.58249 0.04577,-0.18307 0.113395,-0.37029 0.150284,-0.41606 0.03689,-0.0458 0.135999,-0.38278 0.220243,-0.74891 0.139131,-0.60467 0.372262,-1.53877 0.436129,-1.74746 0.01401,-0.0458 -0.01198,-0.13508 -0.05775,-0.19848 -0.04577,-0.0634 0.125361,-0.36658 0.38028,-0.67374 0.254922,-0.30716 0.368557,-0.65341 0.252526,-0.76944 -0.116035,-0.11603 -0.04415,-0.41198 0.159747,-0.65765 0.203897,-0.24568 0.25915,-0.44669 0.122785,-0.44669 -0.136365,0 -0.07254,-0.21134 0.14183,-0.46964 0.214375,-0.2583 0.25859,-0.55072 0.09826,-0.6498 -0.231556,-0.14311 -19.711751,65.19081 -19.711751,66.11053 0,0.13601 0.07543,0.24729 0.167623,0.24729 0.09219,0 15.89419,-10.4851 35.115559,-23.30022 z m 106.177615,23.05059 c 1e-5,-0.1373 -5.25817,-18.12742 -11.68486,-39.97804 -9.7299,-33.08152 -11.60939,-39.79779 -11.23367,-40.14311 0.24817,-0.22809 15.03152,-11.85736 32.8519,-25.84283 L 240.73087,96.201304 198.35977,96.034879 155.98868,95.868455 142.58607,57.92368 c -7.37144,-20.869626 -13.61979,-38.543903 -13.88522,-39.27617 -0.42399,-1.169699 -0.48579,8.622957 -0.50887,80.631844 l -0.0263,81.963236 34.86592,23.27786 c 19.17626,12.80283 34.97826,23.28793 35.11556,23.30023 0.1373,0.0123 0.24964,-0.09 0.24965,-0.22727 z m -70.01006,-42.87667 c 0.27741,-0.72294 -0.42686,-1.4028 -0.93097,-0.89869 -0.42606,0.42606 -0.16211,1.42033 0.37705,1.42033 0.19456,0 0.44382,-0.23474 0.55392,-0.52164 z m -51.535279,-24.1967 c -0.06102,-0.0787 0.09462,-0.3907 0.345867,-0.69344 0.251251,-0.30274 0.345247,-0.55043 0.208882,-0.55043 -0.136365,0 -0.06692,-0.21811 0.154326,-0.48469 0.221241,-0.26658 0.312029,-0.63069 0.201749,-0.80913 -0.110279,-0.17843 -0.04584,-0.42002 0.143199,-0.53685 0.189038,-0.11683 0.263929,-0.3415 0.166424,-0.49927 -0.0975,-0.15777 -0.02506,-0.38093 0.160996,-0.49592 0.409457,-0.25306 0.449006,-0.83548 0.05673,-0.83548 -0.154851,0 -0.604197,1.11044 -0.998547,2.46764 -0.748457,2.57589 -0.847007,3.0989 -0.522842,2.77473 0.106791,-0.10679 0.144237,-0.25851 0.08321,-0.33716 z m 1.911179,-5.82325 c -0.102125,-0.10212 -0.01584,-0.39031 0.19171,-0.64041 0.207565,-0.2501 0.281158,-0.55096 0.163536,-0.66858 -0.299684,-0.29969 -0.45609,-0.0806 -0.734618,1.02918 -0.179535,0.71532 -0.137832,0.8999 0.161515,0.7149 0.221944,-0.13718 0.319981,-0.33296 0.217857,-0.43509 z m 0.665697,-2.32994 c -0.102124,-0.10213 -0.01584,-0.39031 0.191711,-0.64041 0.207565,-0.2501 0.281158,-0.55097 0.163536,-0.66859 -0.299684,-0.29968 -0.45609,-0.0806 -0.734618,1.02918 -0.179535,0.71533 -0.137833,0.89991 0.161515,0.7149 0.221944,-0.13717 0.319981,-0.33296 0.217856,-0.43508 z m 0.640665,-2.0776 c 0.113142,-0.18307 0.04709,-0.33285 -0.14678,-0.33285 -0.193871,0 -0.352494,0.14978 -0.352494,0.33285 0,0.18307 0.06605,0.33285 0.14678,0.33285 0.08073,0 0.239352,-0.14978 0.352494,-0.33285 z m 0.499273,-1.35104 c 0,-0.17226 -0.149782,-0.3132 -0.332849,-0.3132 -0.183067,0 -0.332849,0.23351 -0.332849,0.51891 0,0.28541 0.149782,0.42635 0.332849,0.31321 0.183067,-0.11314 0.332849,-0.34666 0.332849,-0.51892 z m -1.338073,-2.48477 c -0.231569,-0.27902 -0.507687,-0.42066 -0.6136,-0.31475 -0.105912,0.10591 0.02776,0.33191 0.297068,0.50222 0.704631,0.44562 0.7967,0.3911 0.316532,-0.18747 z m -1.657567,-1.32335 c -0.227899,-0.2746 -0.564142,-0.49927 -0.747209,-0.49927 -0.185673,0 -0.149629,0.22076 0.08151,0.49927 0.227898,0.2746 0.564142,0.49928 0.747209,0.49928 0.185673,0 0.149629,-0.22077 -0.08151,-0.49928 z m -1.657568,-1.32335 c -0.231569,-0.27903 -0.575692,-0.50732 -0.764717,-0.50732 -0.189025,0 -0.07175,0.30049 0.260614,0.66774 0.688352,0.76062 1.14729,0.61458 0.504103,-0.16042 z m -1.660999,-1.15448 c -0.373387,-0.69767 -1.008469,-1.20985 -1.008469,-0.8133 0,0.25673 1.012363,1.46046 1.228269,1.46046 0.0696,0 -0.02932,-0.29122 -0.2198,-0.64716 z m -1.757379,-1.43314 c -0.273492,-0.4119 -0.663331,-0.74891 -0.866309,-0.74891 -0.202981,0 -0.605106,-0.33701 -0.893613,-0.74891 -0.288507,-0.4119 -0.704708,-0.74891 -0.92489,-0.74891 -0.220183,0 -0.591044,-0.30538 -0.824134,-0.67861 -0.233091,-0.37324 -0.5523,-0.5992 -0.709355,-0.50214 -0.157054,0.0971 -0.53319,-0.20146 -0.83586,-0.66339 -0.302666,-0.46193 -0.677121,-0.76149 -0.832122,-0.66569 -0.154998,0.0958 -0.529453,-0.20377 -0.832122,-0.6657 -0.302666,-0.46193 -0.685992,-0.75601 -0.85183,-0.65352 -0.165839,0.10249 -0.464092,-0.11741 -0.662786,-0.48867 -0.198694,-0.37126 -0.575392,-0.67502 -0.837112,-0.67502 -0.261719,0 -0.636174,-0.29956 -0.832122,-0.66569 -0.195948,-0.36614 -0.539644,-0.6657 -0.763768,-0.6657 -0.224124,0 -0.594578,-0.29957 -0.823232,-0.6657 -0.228654,-0.36613 -0.603109,-0.6657 -0.832122,-0.6657 -0.229014,0 -0.603469,-0.29956 -0.832123,-0.6657 -0.228653,-0.36613 -0.603108,-0.66569 -0.832122,-0.66569 -0.229013,0 -0.612575,-0.31415 -0.852363,-0.69811 -0.239787,-0.38396 -0.5245,-0.60959 -0.632695,-0.50139 -0.108196,0.10819 -0.405876,-0.1019 -0.661511,-0.46686 -0.255635,-0.36497 -0.644941,-0.66359 -0.865124,-0.66359 -0.220183,0 -0.587415,-0.29956 -0.816069,-0.66569 -0.228654,-0.36614 -0.603109,-0.6657 -0.832122,-0.6657 -0.229014,0 -0.607097,-0.30538 -0.840188,-0.67861 -0.23309,-0.37324 -0.552299,-0.5992 -0.709354,-0.50214 -0.157055,0.0971 -0.533191,-0.20146 -0.83586,-0.66338 -0.302666,-0.46193 -0.685992,-0.75602 -0.85183,-0.65352 -0.165839,0.10249 -0.464091,-0.11741 -0.662786,-0.48867 -0.198694,-0.37126 -0.544634,-0.67502 -0.768757,-0.67502 -0.224124,0 -0.594578,-0.29956 -0.823232,-0.6657 -0.228654,-0.36613 -0.603109,-0.66569 -0.832123,-0.66569 -0.229013,0 -0.607096,-0.30538 -0.840187,-0.67862 -0.23309,-0.37323 -0.56117,-0.59371 -0.729062,-0.48995 -0.167896,0.10377 -0.467829,-0.1151 -0.666523,-0.48636 -0.198694,-0.37126 -0.544634,-0.67502 -0.768758,-0.67502 -0.224124,0 -0.594578,-0.29956 -0.823232,-0.66569 -0.228654,-0.36614 -0.603109,-0.6657 -0.832122,-0.6657 -0.229014,0 -0.607097,-0.30538 -0.840187,-0.67861 -0.233091,-0.37324 -0.56117,-0.59372 -0.729063,-0.48995 -0.167895,0.10376 -0.467829,-0.1151 -0.666523,-0.48636 -0.198694,-0.37127 -0.544634,-0.67502 -0.768758,-0.67502 -0.224123,0 -0.594578,-0.29957 -0.823232,-0.6657 -0.228653,-0.36614 -0.603108,-0.6657 -0.832122,-0.6657 -0.229013,0 -0.607096,-0.30538 -0.840187,-0.67861 -0.233091,-0.37324 -0.56117,-0.59372 -0.729062,-0.48995 -0.167896,0.10376 -0.467829,-0.1151 -0.666523,-0.48636 -0.198695,-0.37126 -0.544634,-0.67502 -0.768758,-0.67502 -0.224124,0 -0.594578,-0.29957 -0.823232,-0.6657 -0.228654,-0.36613 -0.603108,-0.6657 -0.832121,-0.6657 -0.229013,0 -0.607098,-0.30537 -0.840189,-0.67861 -0.23309,-0.37324 -0.561169,-0.59372 -0.729063,-0.48995 -0.167894,0.10376 -0.467829,-0.1151 -0.666522,-0.48636 -0.198693,-0.37126 -0.544634,-0.67502 -0.768757,-0.67502 -0.224123,0 -0.594578,-0.29956 -0.823232,-0.6657 -0.228654,-0.36613 -0.603109,-0.6657 -0.832122,-0.6657 -0.229013,0 -0.607098,-0.30537 -0.840188,-0.67861 -0.233091,-0.37324 -0.561169,-0.59371 -0.729064,-0.48995 -0.167894,0.10376 -0.467829,-0.1151 -0.666522,-0.48636 -0.198693,-0.37126 -0.544633,-0.67502 -0.768757,-0.67502 -0.224123,0 -0.594577,-0.29956 -0.823231,-0.6657 -0.228655,-0.36613 -0.623115,-0.66569 -0.876577,-0.66569 -0.253463,0 -0.547057,-0.22468 -0.652431,-0.49928 -0.105374,-0.2746 -0.415693,-0.49927 -0.689598,-0.49927 -0.273905,0 -0.658331,-0.29956 -0.85428,-0.6657 -0.195949,-0.36613 -0.539644,-0.6657 -0.763767,-0.6657 -0.224123,0 -0.598208,-0.30537 -0.831298,-0.67861 -0.23309,-0.373235 -0.561169,-0.593715 -0.729064,-0.489949 -0.167893,0.103762 -0.467829,-0.115099 -0.666521,-0.486359 -0.198694,-0.371263 -0.544634,-0.675021 -0.768757,-0.675021 -0.224123,0 -0.594578,-0.299564 -0.823232,-0.665697 -0.228654,-0.366134 -0.630299,-0.665698 -0.892544,-0.665698 -0.262245,0 -0.583054,-0.171907 -0.712909,-0.382018 -0.177084,-0.286529 3.998715,-0.332556 16.706014,-0.184135 9.318162,0.108835 24.056758,0.08276 32.752435,-0.05795 14.483424,-0.234359 13.019182,-0.260807 -17.446831,-0.315138 -18.291432,-0.03262 -33.149174,0.04867 -33.017202,0.180644 0.393812,0.39381 57.942413,45.651541 58.076944,45.673241 0.0681,0.011 -0.09995,-0.31705 -0.373447,-0.72895 z M 128.8314,11.324834 c 0,-0.252992 -0.13106,-0.540985 -0.29125,-0.639984 -0.16018,-0.099 -0.29124,0.188994 -0.29124,0.639984 0,0.45099 0.13106,0.738982 0.29124,0.639984 0.16019,-0.099 0.29125,-0.386992 0.29125,-0.639984 z"
     id="path934"
     transform="scale(0.2)" />
</svg>
